<svg width="279" height="62" viewBox="0 0 62 62" fill="none" xmlns="http://www.w3.org/2000/svg">
    <path fill-rule="evenodd" clip-rule="evenodd" d="M37.2859 50.7809C34.9787 51.2266 27.6176 50.8751 24.783 50.8757C21.6037 50.8764 15.7279 51.3811 13.2995 49.9959C9.90494 48.0598 10.2869 45.1681 10.2869 40.5495C10.2869 36.4904 10.4066 32.2887 10.3199 28.2529C10.2342 24.2582 11.0197 21.081 12.4678 17.9852C13.9907 14.7292 15.7379 13.0805 17.8294 11.0216C19.81 9.0719 22.8599 7.50472 25.7424 6.59625C29.6661 5.35974 32.878 5.63852 37.151 5.63841C43.2088 5.63819 56.3009 4.96272 61.2914 6.45246C71.2487 9.42487 77.2001 17.9705 77.0466 27.8106C76.9875 31.6029 77.3467 36.2965 76.9587 39.9615C76.2659 46.5056 70.7785 51.2196 63.2391 50.842C63.0193 41.6527 49.7585 34.7484 41.4675 42.8666C38.2502 46.0168 38.6445 46.4305 37.2859 50.7809ZM7.49645 44.931C5.15099 45.3759 3.44691 44.0886 2.72949 46.4778C3.66453 48.5425 5.71753 47.4124 7.99789 47.8046C8.62219 48.5286 8.892 49.4937 9.5325 50.2174C12.5338 53.609 14.4744 53.5209 18.8198 53.5207C24.3412 53.5205 29.8644 53.5478 35.3841 53.5464C39.787 53.5454 39.7513 54.3856 40.4514 50.443C42.1631 40.8023 55.0766 38.959 59.6919 47.7752C60.1691 48.6865 60.4909 49.8813 60.6272 51.0462C60.7999 52.5227 60.7607 53.4234 62.3144 53.5395C72.4573 54.297 79.7392 48.1435 79.9891 37.9235C80.1682 30.6029 80.5716 22.3178 77.1503 15.9327C74.3108 10.6334 69.4927 6.26439 63.6799 4.28452C58.4788 2.51307 54.3855 2.85733 48.6354 2.85961C38.5069 2.86353 27.0599 1.43329 19.134 6.61355C15.2639 9.14293 13.3707 11.4041 10.862 15.0653C5.67311 22.6379 8.19308 34.9703 7.49645 44.931Z" fill="white"/>
    <path fill-rule="evenodd" clip-rule="evenodd" d="M23.5323 17.0331C25.0808 16.6218 27.0457 16.6864 28.7675 16.7875C34.8723 17.1465 33.6272 22.6536 33.6226 27.8148C33.6194 31.4029 33.6198 34.9867 33.6174 38.5735C33.6126 45.6361 32.1988 46.1218 24.7729 45.8271C18.7072 45.5864 20.0167 39.1665 20.0029 34.8407C19.9915 31.2564 20.0059 27.6674 20.0046 24.0822C20.0036 21.0009 19.6262 18.0708 23.5323 17.0331ZM36.3166 42.3061C36.7608 38.5947 36.3692 32.8857 36.4127 28.9126C36.5175 19.3164 37.4105 13.2845 24.5615 14.0074C20.7761 14.2204 17.9431 16.8675 17.3739 20.2159C16.853 23.2815 17.2462 30.2726 17.2462 33.743C17.2462 44.3991 16.4185 49.1286 29.2108 48.677C32.985 48.5437 35.8984 45.7988 36.3166 42.3061Z" fill="white"/>
    <path fill-rule="evenodd" clip-rule="evenodd" d="M44.5419 27.156C44.2736 25.0865 44.3705 20.9811 45.4075 19.5643C46.8679 17.5692 48.9089 17.5831 52.1691 17.5819C58.1925 17.5795 64.7152 16.2748 65.5463 21.5689C65.8474 23.4867 65.7913 27.7752 64.8452 29.2133C63.2694 31.6084 60.8929 31.1166 57.9113 31.1164C55.0444 31.1164 52.1513 31.1559 49.2881 31.1234C46.6688 31.0937 44.8427 29.4787 44.5419 27.156ZM47.8169 15.0349C45.8633 15.5732 45.4159 15.6588 44.1242 16.9612C43.0335 18.061 42.312 18.9352 41.9851 20.571C41.3962 23.5177 41.6082 28.5046 43.0152 30.5461C44.7593 33.0767 46.7767 33.9088 51.0647 33.9042C57.6479 33.8973 66.3923 35.6424 68.1272 28.3435C68.8268 25.3999 68.6169 20.3746 67.1427 18.1978C65.3578 15.562 63.2591 14.8577 59.0156 14.8631C56.7909 14.8661 49.3994 14.5989 47.8169 15.0349Z" fill="white"/>
    <path fill-rule="evenodd" clip-rule="evenodd" d="M46.1016 53.0646C45.1645 46.6485 54.2652 46.008 55.1034 51.5281C55.5176 54.2566 53.4521 56.5043 51.1813 56.683C48.5065 56.8936 46.4285 55.3033 46.1016 53.0646ZM49.2916 45.0682C45.8111 45.7108 42.5682 49.2714 43.4313 53.6467C44.1808 57.4454 47.9102 60.0682 52.0691 59.3156C55.3886 58.715 58.7519 55.0409 57.7785 50.7667C57.014 47.4101 53.6272 44.268 49.2916 45.0682Z" fill="white"/>
</svg>