<svg width="122" height="122" viewBox="0 0 122 122" fill="none" xmlns="http://www.w3.org/2000/svg">
    <g clip-path="url(#clip0_22_502)">
        <path d="M32.8773 81.6134C26.4912 81.6134 21.1134 86.9912 21.1134 93.3773C21.1134 99.7634 26.4912 105.141 32.8773 105.141C39.2634 105.141 44.6411 99.7634 44.6411 93.3773C44.6411 86.9912 39.2634 81.6134 32.8773 81.6134ZM32.8773 98.419C30.1884 98.419 27.8356 96.0662 27.8356 93.3773C27.8356 90.6884 30.1884 88.3356 32.8773 88.3356C35.5661 88.3356 37.9189 90.6884 37.9189 93.3773C37.9189 96.0662 35.5661 98.419 32.8773 98.419Z" fill="white"/>
        <path d="M79.9328 81.6134C73.5467 81.6134 68.1689 86.9912 68.1689 93.3773C68.1689 99.7634 73.2106 105.141 79.9328 105.141C86.3189 105.141 91.6967 99.7634 91.6967 93.3773C91.6967 86.9912 86.3189 81.6134 79.9328 81.6134ZM79.9328 98.419C77.2439 98.419 74.8911 96.0662 74.8911 93.3773C74.8911 90.6884 77.2439 88.3356 79.9328 88.3356C82.6217 88.3356 84.9745 90.6884 84.9745 93.3773C84.9745 96.0662 82.6217 98.419 79.9328 98.419Z" fill="white"/>
        <path d="M111.863 68.505V68.1689H111.527L99.7634 49.6828C105.141 46.6578 108.502 41.28 108.502 35.5661V33.5495C108.502 24.8106 101.444 17.7523 92.705 17.7523H64.1356C57.7495 17.7523 51.6995 21.7856 49.3467 27.8356H17.7523C12.0384 27.8356 7.66893 32.205 7.66893 37.9189V95.0578H14.3912V37.9189C14.3912 35.9023 15.7356 34.5578 17.7523 34.5578H54.3884L54.7245 31.8689C55.7328 27.4995 59.43 24.4745 63.7995 24.4745H92.3689C97.7467 24.4745 101.78 28.5078 101.78 33.5495V35.23C101.78 40.2717 97.7467 44.305 92.705 44.305H81.6134V74.555H107.83L108.502 75.5634V84.9745C108.502 86.9911 107.158 88.3356 105.141 88.3356H98.4189V95.0578H105.141C110.855 95.0578 115.224 90.6884 115.224 84.9745V73.8828L111.863 68.505ZM88.3356 68.1689V51.3634H93.3773L103.797 68.1689H88.3356Z" fill="white"/>
        <path d="M64.8078 31.1967H91.6967V37.9189H64.8078V31.1967Z" fill="white"/>
        <path d="M68.1689 74.8912H74.8912V44.6412H51.3634V95.0579H58.0856V51.3634H68.1689V74.8912Z" fill="white"/>
        <path d="M21.1134 68.169H44.6411V44.6412H21.1134V68.169ZM27.8356 51.3634H37.9189V61.4467H27.8356V51.3634Z" fill="white"/>
    </g>
    <defs>
        <clipPath id="clip0_22_502">
            <rect width="121" height="121" fill="white" transform="translate(0.946712 0.946716)"/>
        </clipPath>
    </defs>
</svg>
