<svg xmlns="http://www.w3.org/2000/svg" width="122" height="122" viewBox="0 0 122 122" fill="none">
    <path d="M28.1718 13.0467C25.765 13.0467 23.4567 14.0028 21.7548 15.7047C20.0529 17.4066 19.0968 19.7149 19.0968 22.1217L19.0968 100.772C19.0968 103.179 20.0529 105.487 21.7548 107.189C23.4567 108.891 25.765 109.847 28.1718 109.847H70.5218C72.9286 109.847 75.2369 108.891 76.9388 107.189C78.6407 105.487 79.5968 103.179 79.5968 100.772L79.5968 91.6967C79.5968 90.8944 79.2781 90.125 78.7108 89.5577C78.1435 88.9904 77.3741 88.6717 76.5718 88.6717C74.0732 88.6717 72.4759 88.0546 71.393 87.2439C70.2859 86.415 69.4449 85.1748 68.8278 83.4747C67.5331 79.9173 67.4968 75.2044 67.4968 70.5217C67.4967 70.1238 67.4181 69.7297 67.2655 69.3622C67.1129 68.9947 66.8893 68.6609 66.6074 68.38L64.8772 66.6436L57.5385 59.305C54.7132 56.4796 53.8843 54.586 53.727 53.5272C53.606 52.6802 53.8601 52.1115 54.4651 51.5307C55.7598 50.2905 56.6854 49.4495 57.7321 49.1954C58.3552 49.0381 59.777 48.9292 62.3301 51.4823L80.4801 69.6323C81.0473 70.2004 81.8169 70.5198 82.6197 70.5203C83.0171 70.5206 83.4108 70.4426 83.7781 70.2908C84.1454 70.1389 84.4792 69.9162 84.7605 69.6354C85.0417 69.3545 85.2649 69.021 85.4173 68.6539C85.5696 68.2868 85.6482 67.8933 85.6485 67.4958C85.6488 67.0983 85.5708 66.7047 85.4189 66.3374C85.2671 65.9701 85.0444 65.6362 84.7635 65.355L79.5968 60.1943V41.524L95.0848 57.012C95.9285 57.8546 96.5978 58.8553 97.0546 59.9567C97.5113 61.0581 97.7465 62.2387 97.7468 63.4311L97.7468 106.822C97.7468 107.624 98.0655 108.393 98.6328 108.961C99.2001 109.528 99.9695 109.847 100.772 109.847C101.574 109.847 102.343 109.528 102.911 108.961C103.478 108.393 103.797 107.624 103.797 106.822L103.797 63.4311C103.796 59.4215 102.203 55.5763 99.3682 52.7407L79.5968 32.9693V22.1217C79.5968 19.7149 78.6407 17.4066 76.9388 15.7047C75.2369 14.0028 72.9286 13.0467 70.5218 13.0467L28.1718 13.0467ZM73.5468 34.2217V54.1443L66.6135 47.205C63.1105 43.7081 59.6318 42.5041 56.2983 43.3148C55.6434 43.4765 55.0083 43.7098 54.4046 44.0106C51.7002 43.2272 48.8507 43.0835 46.0812 43.5908C43.3117 44.0982 40.6982 45.2427 38.4471 46.9339C36.1961 48.6252 34.3692 50.8167 33.1109 53.3355C31.8526 55.8542 31.1973 58.6311 31.1968 61.4467C31.1966 64.9554 32.2133 68.3889 34.124 71.3317C36.0346 74.2745 38.7573 76.6004 41.9625 78.0279C45.1676 79.4554 48.7179 79.9233 52.1834 79.3749C55.649 78.8266 58.8813 77.2855 61.4892 74.9382C61.592 78.4351 61.9429 82.2587 63.1408 85.5438C64.0362 88.0062 65.464 90.3596 67.763 92.0778L67.7993 92.1141C65.957 92.6935 64.3476 93.8455 63.2051 95.4025C62.0627 96.9596 61.4467 98.8405 61.4468 100.772V103.797H37.2468V100.772C37.2468 98.3648 36.2907 96.0566 34.5888 94.3547C32.8869 92.6528 30.5786 91.6967 28.1718 91.6967H25.1468L25.1468 31.1967H28.1718C30.5786 31.1967 32.8869 30.2406 34.5888 28.5387C36.2907 26.8368 37.2468 24.5285 37.2468 22.1217V19.0967L61.4468 19.0967V22.1217C61.4468 24.5285 62.4029 26.8368 64.1048 28.5387C65.8067 30.2406 68.115 31.1967 70.5218 31.1967H73.5468V34.2217ZM73.5468 100.772V100.826C73.5325 101.619 73.2075 102.374 72.6418 102.93C72.076 103.486 71.3147 103.797 70.5218 103.797H67.4968V100.772C67.4968 99.9694 67.8155 99.2 68.3828 98.6327C68.9501 98.0654 69.7195 97.7467 70.5218 97.7467H73.5468L73.5468 100.772ZM37.2468 61.4467C37.2468 58.3696 38.4192 55.408 40.5255 53.1647C42.6317 50.9214 45.5135 49.5647 48.5845 49.3709C47.8343 50.7624 47.4532 52.4564 47.7436 54.4105C48.1731 57.3266 50.0304 60.3577 53.2551 63.5823L58.7425 69.0697C57.1672 71.0109 55.0292 72.4166 52.6226 73.0934C50.216 73.7702 47.6588 73.685 45.3026 72.8494C42.9463 72.0138 40.9068 70.4689 39.4643 68.4271C38.0217 66.3852 37.2471 63.9467 37.2468 61.4467ZM31.1968 19.0967V22.1217C31.1968 22.924 30.8781 23.6934 30.3108 24.2607C29.7435 24.828 28.9741 25.1467 28.1718 25.1467H25.1468V22.1217C25.1468 21.3194 25.4655 20.55 26.0328 19.9827C26.6001 19.4154 27.3695 19.0967 28.1718 19.0967H31.1968ZM25.1468 97.7467H28.1718C28.9741 97.7467 29.7435 98.0654 30.3108 98.6327C30.8781 99.2 31.1968 99.9694 31.1968 100.772V103.797H28.1718C27.3695 103.797 26.6001 103.478 26.0328 102.911C25.4655 102.343 25.1468 101.574 25.1468 100.772V97.7467ZM73.5468 25.1467H70.5218C69.7195 25.1467 68.9501 24.828 68.3828 24.2607C67.8155 23.6934 67.4968 22.924 67.4968 22.1217V19.0967H70.5218C71.3241 19.0967 72.0935 19.4154 72.6608 19.9827C73.2281 20.55 73.5468 21.3194 73.5468 22.1217V25.1467Z" fill="white"/>
</svg>