<svg xmlns="http://www.w3.org/2000/svg" width="28" height="28" viewBox="0 0 28 28" fill="none">
    <path d="M24.0625 14C24.0625 14.116 24.0164 14.2273 23.9344 14.3094C23.8523 14.3914 23.741 14.4375 23.625 14.4375H14.4375V23.625C14.4375 23.741 14.3914 23.8523 14.3094 23.9344C14.2273 24.0164 14.116 24.0625 14 24.0625C13.884 24.0625 13.7727 24.0164 13.6906 23.9344C13.6086 23.8523 13.5625 23.741 13.5625 23.625V14.4375H4.375C4.25897 14.4375 4.14769 14.3914 4.06564 14.3094C3.98359 14.2273 3.9375 14.116 3.9375 14C3.9375 13.884 3.98359 13.7727 4.06564 13.6906C4.14769 13.6086 4.25897 13.5625 4.375 13.5625H13.5625V4.375C13.5625 4.25897 13.6086 4.14769 13.6906 4.06564C13.7727 3.98359 13.884 3.9375 14 3.9375C14.116 3.9375 14.2273 3.98359 14.3094 4.06564C14.3914 4.14769 14.4375 4.25897 14.4375 4.375V13.5625H23.625C23.741 13.5625 23.8523 13.6086 23.9344 13.6906C24.0164 13.7727 24.0625 13.884 24.0625 14Z" fill="black"/>
</svg>