<svg xmlns="http://www.w3.org/2000/svg" width="150" height="178" viewBox="0 0 150 178" fill="none">
    <g clip-path="url(#clip0_89_61)">
        <path d="M96.2761 14.6143C72.871 8.8402 55.3458 14.6897 39.2249 28.8553C36.3005 31.425 35.9168 35.8428 38.3651 38.8694L48.6482 51.5812C51.1208 54.6378 55.5816 55.1662 58.6989 52.7704C68.314 45.3807 75.0695 41.4268 86.5426 44.2573C95.5634 46.4828 105.289 55.041 103.131 63.7886C101.5 70.4014 95.2027 72.4508 85.0637 75.2471C73.2401 78.508 57.7068 82.3644 53.2341 100.494L52.526 103.364C51.5672 107.251 53.9406 111.179 57.8273 112.138L79.0777 117.381C82.9644 118.339 86.8925 115.966 87.8513 112.079L88.2689 110.387C91.3694 97.8188 128.23 106.357 136.621 72.3483C142.939 46.7368 121.165 20.7546 96.2761 14.6143ZM66.3216 123.398C55.1215 120.634 43.7615 127.498 40.9984 138.699C38.2354 149.898 45.0994 161.258 56.2995 164.021C67.4996 166.785 78.8596 159.92 81.6227 148.72C84.3858 137.52 77.5217 126.161 66.3216 123.398Z" fill="#FF0000" fill-opacity="0.44"/>
    </g>
    <defs>
        <clipPath id="clip0_89_61">
            <rect width="115.975" height="154.633" fill="white" transform="translate(37.0381) rotate(13.8584)"/>
        </clipPath>
    </defs>
</svg>