<svg width="36" height="36" viewBox="0 0 36 36" fill="none" xmlns="http://www.w3.org/2000/svg">
<path d="M19.6785 18L26.6535 11.025C26.7637 10.9148 26.8511 10.7839 26.9108 10.6399C26.9704 10.4959 27.0011 10.3416 27.0011 10.1858C27.0011 10.0299 26.9704 9.87555 26.9108 9.73155C26.8511 9.58755 26.7637 9.45671 26.6535 9.3465C26.5433 9.23629 26.4124 9.14886 26.2684 9.08922C26.1244 9.02957 25.9701 8.99887 25.8142 8.99887C25.6584 8.99887 25.504 9.02957 25.3601 9.08922C25.2161 9.14886 25.0852 9.23629 24.975 9.3465L18 16.3215L11.025 9.3465C10.9148 9.23629 10.7839 9.14886 10.6399 9.08922C10.4959 9.02957 10.3416 8.99887 10.1858 8.99887C10.0299 8.99887 9.87555 9.02957 9.73155 9.08922C9.58755 9.14886 9.45671 9.23629 9.3465 9.3465C9.23629 9.45671 9.14886 9.58755 9.08922 9.73155C9.02957 9.87555 8.99887 10.0299 8.99887 10.1858C8.99887 10.3416 9.02957 10.4959 9.08922 10.6399C9.14886 10.7839 9.23629 10.9148 9.3465 11.025L16.3215 18L9.3465 24.975C9.23629 25.0852 9.14886 25.2161 9.08922 25.3601C9.02957 25.504 8.99887 25.6584 8.99887 25.8142C8.99887 25.9701 9.02957 26.1244 9.08922 26.2684C9.14886 26.4124 9.23629 26.5433 9.3465 26.6535C9.45671 26.7637 9.58755 26.8511 9.73155 26.9108C9.87555 26.9704 10.0299 27.0011 10.1858 27.0011C10.3416 27.0011 10.4959 26.9704 10.6399 26.9108C10.7839 26.8511 10.9148 26.7637 11.025 26.6535L18 19.6785L24.975 26.6535C25.0852 26.7637 25.2161 26.8511 25.3601 26.9108C25.504 26.9704 25.6584 27.0011 25.8142 27.0011C25.9701 27.0011 26.1244 26.9704 26.2684 26.9108C26.4124 26.8511 26.5433 26.7637 26.6535 26.6535C26.7637 26.5433 26.8511 26.4124 26.9108 26.2684C26.9704 26.1244 27.0011 25.9701 27.0011 25.8142C27.0011 25.6584 26.9704 25.504 26.9108 25.3601C26.8511 25.2161 26.7637 25.0852 26.6535 24.975L19.6785 18ZM18 36C13.2261 36 8.64773 34.1036 5.27208 30.7279C1.89642 27.3523 0 22.7739 0 18C0 13.2261 1.89642 8.64773 5.27208 5.27208C8.64773 1.89642 13.2261 0 18 0C22.7739 0 27.3523 1.89642 30.7279 5.27208C34.1036 8.64773 36 13.2261 36 18C36 22.7739 34.1036 27.3523 30.7279 30.7279C27.3523 34.1036 22.7739 36 18 36Z" fill="currentColor"/>
</svg>
