<svg xmlns="http://www.w3.org/2000/svg" width="121" height="91" viewBox="0 0 121 91" fill="none">
    <g clip-path="url(#clip0_62_140)">
        <path d="M52.9378 64.2214C52.9378 66.3937 52.3175 68.2401 51.0768 69.7607C49.8361 71.2814 48.3493 72.0417 46.6163 72.0417H21.4484C19.7154 72.0417 18.2286 71.2814 16.9879 69.7607C15.7472 68.2401 15.1269 66.3937 15.1269 64.2214C15.1269 62.0885 15.2746 60.1038 15.57 58.2673C15.8654 56.4307 16.3479 54.6533 17.0174 52.9352C17.687 51.2171 18.6913 49.8644 20.0305 48.877C21.3696 47.8895 22.9648 47.3958 24.8159 47.3958C27.3367 49.9236 30.4088 51.1875 34.0323 51.1875C37.6559 51.1875 40.728 49.9236 43.2488 47.3958C45.0999 47.3958 46.6951 47.8895 48.0342 48.877C49.3733 49.8644 50.3777 51.2171 51.0473 52.9352C51.7168 54.6533 52.1993 56.4307 52.4947 58.2673C52.7901 60.1038 52.9378 62.0885 52.9378 64.2214ZM45.3756 37.9167C45.3756 41.0764 44.2728 43.7622 42.0672 45.974C39.8615 48.1858 37.1833 49.2917 34.0323 49.2917C30.8814 49.2917 28.2032 48.1858 25.9975 45.974C23.7919 43.7622 22.6891 41.0764 22.6891 37.9167C22.6891 34.7569 23.7919 32.0712 25.9975 29.8594C28.2032 27.6476 30.8814 26.5417 34.0323 26.5417C37.1833 26.5417 39.8615 27.6476 42.0672 29.8594C44.2728 32.0712 45.3756 34.7569 45.3756 37.9167ZM105.873 62.5625V66.3542C105.873 66.9071 105.696 67.3613 105.341 67.7168C104.987 68.0723 104.534 68.25 103.983 68.25H62.3906C61.8391 68.25 61.3862 68.0723 61.0317 67.7168C60.6772 67.3613 60.5 66.9071 60.5 66.3542V62.5625C60.5 62.0095 60.6772 61.5553 61.0317 61.1999C61.3862 60.8444 61.8391 60.6667 62.3906 60.6667H103.983C104.534 60.6667 104.987 60.8444 105.341 61.1999C105.696 61.5553 105.873 62.0095 105.873 62.5625ZM83.1866 47.3958V51.1875C83.1866 51.7405 83.0093 52.1947 82.6549 52.5501C82.3004 52.9056 81.8474 53.0833 81.296 53.0833H62.3906C61.8391 53.0833 61.3862 52.9056 61.0317 52.5501C60.6772 52.1947 60.5 51.7405 60.5 51.1875V47.3958C60.5 46.8429 60.6772 46.3887 61.0317 46.0332C61.3862 45.6777 61.8391 45.5 62.3906 45.5H81.296C81.8474 45.5 82.3004 45.6777 82.6549 46.0332C83.0093 46.3887 83.1866 46.8429 83.1866 47.3958ZM105.873 47.3958V51.1875C105.873 51.7405 105.696 52.1947 105.341 52.5501C104.987 52.9056 104.534 53.0833 103.983 53.0833H92.6393C92.0879 53.0833 91.6349 52.9056 91.2805 52.5501C90.926 52.1947 90.7488 51.7405 90.7488 51.1875V47.3958C90.7488 46.8429 90.926 46.3887 91.2805 46.0332C91.6349 45.6777 92.0879 45.5 92.6393 45.5H103.983C104.534 45.5 104.987 45.6777 105.341 46.0332C105.696 46.3887 105.873 46.8429 105.873 47.3958ZM105.873 32.2292V36.0208C105.873 36.5738 105.696 37.028 105.341 37.3835C104.987 37.7389 104.534 37.9167 103.983 37.9167H62.3906C61.8391 37.9167 61.3862 37.7389 61.0317 37.3835C60.6772 37.028 60.5 36.5738 60.5 36.0208V32.2292C60.5 31.6762 60.6772 31.222 61.0317 30.8665C61.3862 30.5111 61.8391 30.3333 62.3906 30.3333H103.983C104.534 30.3333 104.987 30.5111 105.341 30.8665C105.696 31.222 105.873 31.6762 105.873 32.2292ZM113.435 81.5208V15.1667H7.56469V81.5208C7.56469 82.0343 7.75178 82.4786 8.12595 82.8538C8.50012 83.2291 8.94321 83.4167 9.45524 83.4167H111.545C112.057 83.4167 112.5 83.2291 112.874 82.8538C113.248 82.4786 113.435 82.0343 113.435 81.5208ZM120.998 9.47917V81.5208C120.998 84.1276 120.072 86.3592 118.221 88.2155C116.37 90.0718 114.144 91 111.545 91H9.45524C6.85573 91 4.6304 90.0718 2.77924 88.2155C0.928083 86.3592 0.00250244 84.1276 0.00250244 81.5208V9.47917C0.00250244 6.8724 0.928083 4.64084 2.77924 2.78451C4.6304 0.928168 6.85573 0 9.45524 0H111.545C114.144 0 116.37 0.928168 118.221 2.78451C120.072 4.64084 120.998 6.8724 120.998 9.47917Z" fill="white"/>
    </g>
    <defs>
        <clipPath id="clip0_62_140">
            <rect width="121" height="91" fill="white"/>
        </clipPath>
    </defs>
</svg>