<svg xmlns="http://www.w3.org/2000/svg" width="122" height="122" viewBox="0 0 122 122" fill="none">
    <path fill-rule="evenodd" clip-rule="evenodd" d="M82.8738 19.853V28.3734L92.9571 36.44V19.853H82.8738ZM100.52 42.49V18.5925C100.52 15.1138 97.6963 12.2905 94.2176 12.2905H81.6134C78.1347 12.2905 75.3113 15.1138 75.3113 18.5925V22.3234L73.2594 20.6798C69.9067 17.9969 65.7407 16.5353 61.4467 16.5353C57.1528 16.5353 52.9867 17.9969 49.6341 20.6798L8.67056 53.4506C7.887 54.0771 7.38439 54.9891 7.27329 55.9862C7.1622 56.9832 7.45172 57.9835 8.07816 58.7671C8.70461 59.5506 9.61667 60.0532 10.6137 60.1643C11.6107 60.2754 12.611 59.9859 13.3946 59.3595L17.3321 56.2034V108.082H11.0301C10.0272 108.082 9.06543 108.481 8.35631 109.19C7.64719 109.899 7.24881 110.861 7.24881 111.863C7.24881 112.866 7.64719 113.828 8.35631 114.537C9.06543 115.246 10.0272 115.645 11.0301 115.645H111.863C112.866 115.645 113.828 115.246 114.537 114.537C115.246 113.828 115.645 112.866 115.645 111.863C115.645 110.861 115.246 109.899 114.537 109.19C113.828 108.481 112.866 108.082 111.863 108.082H105.561V56.2034L109.504 59.3595C110.289 59.9711 111.283 60.2487 112.271 60.1321C113.259 60.0155 114.162 59.5141 114.783 58.7366C115.404 57.9591 115.693 56.9681 115.588 55.9786C115.484 54.9891 114.993 54.0808 114.223 53.4506L100.52 42.49ZM97.9988 50.1534L68.5353 26.5836C66.5236 24.9734 64.0235 24.0961 61.4467 24.0961C58.8699 24.0961 56.3699 24.9734 54.3581 26.5836L24.8946 50.1534V108.082H42.5405V86.403C42.5405 83.0553 42.5405 80.1664 42.8531 77.8523C43.1858 75.3718 43.937 72.9972 45.8629 71.0713C47.7889 69.1453 50.1685 68.3941 52.644 68.0614C54.9581 67.7488 57.847 67.7488 61.1997 67.7488H61.6938C65.0465 67.7488 67.9354 67.7488 70.2495 68.0614C72.73 68.3941 75.1046 69.1453 77.0305 71.0713C78.9564 72.9972 79.7076 75.3718 80.0404 77.8523C80.353 80.1664 80.353 83.0553 80.353 86.408V108.082H97.9988V50.1534ZM72.7905 108.082V86.655C72.7905 82.9847 72.7804 80.605 72.5485 78.8606C72.3266 77.2221 71.9737 76.7078 71.6813 76.4205C71.3939 76.1331 70.8797 75.7751 69.2411 75.5533C67.4917 75.3214 65.1171 75.3113 61.4467 75.3113C57.7764 75.3113 55.3967 75.3214 53.6523 75.5533C52.0138 75.7751 51.4995 76.1331 51.2121 76.4205C50.9248 76.7078 50.5668 77.2221 50.345 78.8606C50.1131 80.6101 50.103 82.9847 50.103 86.655V108.082H72.7905ZM61.4467 42.5405C60.6191 42.5405 59.7996 42.7035 59.035 43.0202C58.2704 43.3369 57.5757 43.8011 56.9905 44.3863C56.4053 44.9715 55.9411 45.6662 55.6244 46.4308C55.3077 47.1954 55.1446 48.0149 55.1446 48.8425C55.1446 49.6702 55.3077 50.4896 55.6244 51.2543C55.9411 52.0189 56.4053 52.7136 56.9905 53.2988C57.5757 53.884 58.2704 54.3482 59.035 54.6649C59.7996 54.9816 60.6191 55.1446 61.4467 55.1446C63.1181 55.1446 64.7211 54.4807 65.903 53.2988C67.0848 52.1169 67.7488 50.514 67.7488 48.8425C67.7488 47.1711 67.0848 45.5682 65.903 44.3863C64.7211 43.2044 63.1181 42.5405 61.4467 42.5405ZM47.5821 48.8425C47.5821 45.1654 49.0429 41.6389 51.643 39.0388C54.2431 36.4387 57.7696 34.978 61.4467 34.978C65.1238 34.978 68.6504 36.4387 71.2505 39.0388C73.8506 41.6389 75.3113 45.1654 75.3113 48.8425C75.3113 52.5197 73.8506 56.0462 71.2505 58.6463C68.6504 61.2464 65.1238 62.7071 61.4467 62.7071C57.7696 62.7071 54.2431 61.2464 51.643 58.6463C49.0429 56.0462 47.5821 52.5197 47.5821 48.8425Z" fill="white"/>
</svg>