<svg xmlns="http://www.w3.org/2000/svg" width="35" height="35" viewBox="0 0 35 35" fill="none">
    <path d="M27.7084 13.1248C27.7084 11.7843 27.4443 10.4568 26.9313 9.21828C26.4183 7.97974 25.6663 6.85439 24.7184 5.90646C23.7705 4.95852 22.6451 4.20658 21.4066 3.69357C20.168 3.18055 18.8406 2.9165 17.5 2.9165C16.1594 2.9165 14.832 3.18055 13.5935 3.69357C12.3549 4.20658 11.2296 4.95852 10.2816 5.90646C9.33371 6.85439 8.58177 7.97974 8.06875 9.21828C7.55573 10.4568 7.29169 11.7843 7.29169 13.1248C7.29169 15.1475 7.88815 17.0288 8.90315 18.6155H8.89148L17.5 32.0832L26.1086 18.6155H26.0984C27.1496 16.9771 27.7084 15.0714 27.7084 13.1248ZM17.5 17.4998C16.3397 17.4998 15.2269 17.0389 14.4064 16.2184C13.586 15.398 13.125 14.2852 13.125 13.1248C13.125 11.9645 13.586 10.8517 14.4064 10.0312C15.2269 9.21077 16.3397 8.74984 17.5 8.74984C18.6603 8.74984 19.7731 9.21077 20.5936 10.0312C21.4141 10.8517 21.875 11.9645 21.875 13.1248C21.875 14.2852 21.4141 15.398 20.5936 16.2184C19.7731 17.0389 18.6603 17.4998 17.5 17.4998Z" fill="currentcolor"/>
</svg>