<svg width="279" height="62" viewBox="0 0 279 62" fill="none" xmlns="http://www.w3.org/2000/svg">
    <path fill-rule="evenodd" clip-rule="evenodd" d="M37.2859 50.7809C34.9787 51.2266 27.6176 50.8751 24.783 50.8757C21.6037 50.8764 15.7279 51.3811 13.2995 49.9959C9.90494 48.0598 10.2869 45.1681 10.2869 40.5495C10.2869 36.4904 10.4066 32.2887 10.3199 28.2529C10.2342 24.2582 11.0197 21.081 12.4678 17.9852C13.9907 14.7292 15.7379 13.0805 17.8294 11.0216C19.81 9.0719 22.8599 7.50472 25.7424 6.59625C29.6661 5.35974 32.878 5.63852 37.151 5.63841C43.2088 5.63819 56.3009 4.96272 61.2914 6.45246C71.2487 9.42487 77.2001 17.9705 77.0466 27.8106C76.9875 31.6029 77.3467 36.2965 76.9587 39.9615C76.2659 46.5056 70.7785 51.2196 63.2391 50.842C63.0193 41.6527 49.7585 34.7484 41.4675 42.8666C38.2502 46.0168 38.6445 46.4305 37.2859 50.7809ZM7.49645 44.931C5.15099 45.3759 3.44691 44.0886 2.72949 46.4778C3.66453 48.5425 5.71753 47.4124 7.99789 47.8046C8.62219 48.5286 8.892 49.4937 9.5325 50.2174C12.5338 53.609 14.4744 53.5209 18.8198 53.5207C24.3412 53.5205 29.8644 53.5478 35.3841 53.5464C39.787 53.5454 39.7513 54.3856 40.4514 50.443C42.1631 40.8023 55.0766 38.959 59.6919 47.7752C60.1691 48.6865 60.4909 49.8813 60.6272 51.0462C60.7999 52.5227 60.7607 53.4234 62.3144 53.5395C72.4573 54.297 79.7392 48.1435 79.9891 37.9235C80.1682 30.6029 80.5716 22.3178 77.1503 15.9327C74.3108 10.6334 69.4927 6.26439 63.6799 4.28452C58.4788 2.51307 54.3855 2.85733 48.6354 2.85961C38.5069 2.86353 27.0599 1.43329 19.134 6.61355C15.2639 9.14293 13.3707 11.4041 10.862 15.0653C5.67311 22.6379 8.19308 34.9703 7.49645 44.931Z" fill="black"/>
    <path fill-rule="evenodd" clip-rule="evenodd" d="M23.5323 17.0331C25.0808 16.6218 27.0457 16.6864 28.7675 16.7875C34.8723 17.1465 33.6272 22.6536 33.6226 27.8148C33.6194 31.4029 33.6198 34.9867 33.6174 38.5735C33.6126 45.6361 32.1988 46.1218 24.7729 45.8271C18.7072 45.5864 20.0167 39.1665 20.0029 34.8407C19.9915 31.2564 20.0059 27.6674 20.0046 24.0822C20.0036 21.0009 19.6262 18.0708 23.5323 17.0331ZM36.3166 42.3061C36.7608 38.5947 36.3692 32.8857 36.4127 28.9126C36.5175 19.3164 37.4105 13.2845 24.5615 14.0074C20.7761 14.2204 17.9431 16.8675 17.3739 20.2159C16.853 23.2815 17.2462 30.2726 17.2462 33.743C17.2462 44.3991 16.4185 49.1286 29.2108 48.677C32.985 48.5437 35.8984 45.7988 36.3166 42.3061Z" fill="black"/>
    <path fill-rule="evenodd" clip-rule="evenodd" d="M44.5419 27.156C44.2736 25.0865 44.3705 20.9811 45.4075 19.5643C46.8679 17.5692 48.9089 17.5831 52.1691 17.5819C58.1925 17.5795 64.7152 16.2748 65.5463 21.5689C65.8474 23.4867 65.7913 27.7752 64.8452 29.2133C63.2694 31.6084 60.8929 31.1166 57.9113 31.1164C55.0444 31.1164 52.1513 31.1559 49.2881 31.1234C46.6688 31.0937 44.8427 29.4787 44.5419 27.156ZM47.8169 15.0349C45.8633 15.5732 45.4159 15.6588 44.1242 16.9612C43.0335 18.061 42.312 18.9352 41.9851 20.571C41.3962 23.5177 41.6082 28.5046 43.0152 30.5461C44.7593 33.0767 46.7767 33.9088 51.0647 33.9042C57.6479 33.8973 66.3923 35.6424 68.1272 28.3435C68.8268 25.3999 68.6169 20.3746 67.1427 18.1978C65.3578 15.562 63.2591 14.8577 59.0156 14.8631C56.7909 14.8661 49.3994 14.5989 47.8169 15.0349Z" fill="black"/>
    <path fill-rule="evenodd" clip-rule="evenodd" d="M46.1016 53.0646C45.1645 46.6485 54.2652 46.008 55.1034 51.5281C55.5176 54.2566 53.4521 56.5043 51.1813 56.683C48.5065 56.8936 46.4285 55.3033 46.1016 53.0646ZM49.2916 45.0682C45.8111 45.7108 42.5682 49.2714 43.4313 53.6467C44.1808 57.4454 47.9102 60.0682 52.0691 59.3156C55.3886 58.715 58.7519 55.0409 57.7785 50.7667C57.014 47.4101 53.6272 44.268 49.2916 45.0682Z" fill="black"/>
    <path d="M103.982 38.7929L103.96 27.5295L98.3397 36.9157H97.3178L91.6976 27.5958V38.7929H89.5649V23.3333H91.3865L97.8733 34.1992L104.271 23.3333H106.093L106.115 38.7929H103.982ZM110.78 23.3333H113.002V38.7929H110.78V23.3333ZM131.04 23.3333V38.7929H129.218L119.888 27.2645V38.7929H117.667V23.3333H119.488L128.819 34.8617V23.3333H131.04ZM135.705 23.3333H137.927V38.7929H135.705V23.3333ZM149.545 38.9695C147.99 38.9695 146.587 38.6272 145.335 37.9426C144.084 37.258 143.103 36.3157 142.392 35.1157C141.681 33.9157 141.326 32.5649 141.326 31.0631C141.326 29.5613 141.681 28.2104 142.392 27.0105C143.103 25.8105 144.088 24.8682 145.347 24.1836C146.605 23.499 148.012 23.1567 149.567 23.1567C150.782 23.1567 151.892 23.3591 152.9 23.764C153.907 24.1689 154.766 24.7689 155.476 25.5639L154.033 26.9553C152.863 25.7333 151.404 25.1222 149.656 25.1222C148.501 25.1222 147.457 25.3799 146.524 25.8951C145.591 26.4105 144.861 27.121 144.336 28.0264C143.81 28.9319 143.547 29.9442 143.547 31.0631C143.547 32.182 143.81 33.1943 144.336 34.0998C144.861 35.0053 145.591 35.7157 146.524 36.2311C147.457 36.7463 148.501 37.004 149.656 37.004C151.389 37.004 152.848 36.3856 154.033 35.1488L155.476 36.5402C154.766 37.3353 153.903 37.9389 152.888 38.3511C151.874 38.7635 150.759 38.9695 149.545 38.9695ZM168.183 34.9281H159.92L158.209 38.7929H155.921L162.963 23.3333H165.162L172.227 38.7929H169.894L168.183 34.9281ZM167.406 33.1612L164.051 25.5861L160.697 33.1612H167.406ZM188.954 38.7929L188.932 27.5295L183.312 36.9157H182.29L176.67 27.5958V38.7929H174.537V23.3333H176.359L182.845 34.1992L189.243 23.3333H191.065L191.087 38.7929H188.954ZM201.817 23.3333C203.831 23.3333 205.416 23.8119 206.571 24.7689C207.726 25.7259 208.304 27.0436 208.304 28.7221C208.304 30.4006 207.726 31.7183 206.571 32.6753C205.416 33.6323 203.831 34.1109 201.817 34.1109H197.974V38.7929H195.752V23.3333H201.817ZM201.75 32.1894C203.157 32.1894 204.231 31.8913 204.971 31.295C205.712 30.6987 206.082 29.8411 206.082 28.7221C206.082 27.6031 205.712 26.7455 204.971 26.1491C204.231 25.5528 203.157 25.2548 201.75 25.2548H197.974V32.1894H201.75ZM222.854 36.8715V38.7929H211.569V23.3333H222.543V25.2548H213.791V30.0031H221.588V31.8803H213.791V36.8715H222.854ZM236.85 38.7929L233.495 34.0445C233.081 34.0741 232.755 34.0888 232.518 34.0888H228.675V38.7929H226.453V23.3333H232.518C234.532 23.3333 236.117 23.8119 237.272 24.7689C238.427 25.7259 239.005 27.0436 239.005 28.7221C239.005 29.9147 238.708 30.9306 238.116 31.7698C237.524 32.6091 236.679 33.2201 235.583 33.6029L239.271 38.7929H236.85ZM232.451 32.2116C233.858 32.2116 234.932 31.9097 235.672 31.3061C236.413 30.7024 236.783 29.8411 236.783 28.7221C236.783 27.6031 236.413 26.7455 235.672 26.1491C234.932 25.5528 233.858 25.2548 232.451 25.2548H228.675V32.2116H232.451ZM242.803 38.9255C242.389 38.9255 242.033 38.7819 241.737 38.4947C241.441 38.2076 241.293 37.8432 241.293 37.4016C241.293 36.9745 241.441 36.6175 241.737 36.3304C242.033 36.0433 242.389 35.8997 242.803 35.8997C243.218 35.8997 243.566 36.0396 243.847 36.3194C244.129 36.599 244.269 36.9598 244.269 37.4016C244.269 37.8432 244.125 38.2076 243.836 38.4947C243.547 38.7819 243.203 38.9255 242.803 38.9255ZM258.109 30.776C259.013 31.0263 259.724 31.479 260.242 32.1343C260.76 32.7894 261.019 33.6176 261.019 34.6188C261.019 35.9587 260.512 36.9893 259.498 37.7107C258.483 38.4322 257.006 38.7929 255.066 38.7929H247.646V23.3333H254.622C256.399 23.3333 257.772 23.6866 258.743 24.3934C259.712 25.1001 260.198 26.0793 260.198 27.3307C260.198 28.1405 260.009 28.8399 259.631 29.4288C259.253 30.0178 258.746 30.4668 258.109 30.776ZM249.868 25.1222V30.0692H254.422C255.562 30.0692 256.44 29.8594 257.054 29.4399C257.669 29.0202 257.976 28.4056 257.976 27.5958C257.976 26.786 257.669 26.1713 257.054 25.7516C256.44 25.3321 255.562 25.1222 254.422 25.1222H249.868ZM254.977 37.004C256.236 37.004 257.184 36.7979 257.821 36.3856C258.457 35.9734 258.776 35.3255 258.776 34.4421C258.776 32.7196 257.509 31.8582 254.977 31.8582H249.868V37.004H254.977ZM270.083 33.4482V38.7929H267.884V33.4042L261.708 23.3333H264.085L269.061 31.4827L274.06 23.3333H276.259L270.083 33.4482Z" fill="black"/>
</svg>