<svg width="293" height="293" viewBox="0 0 293 293" fill="none" xmlns="http://www.w3.org/2000/svg">
    <path fill-rule="evenodd" clip-rule="evenodd" d="M146.5 286.131C69.3838 286.131 6.86885 223.616 6.86885 146.5C6.86885 69.3837 69.3838 6.8687 146.5 6.8687C223.616 6.8687 286.131 69.3837 286.131 146.5C286.131 223.616 223.616 286.131 146.5 286.131ZM293 146.5C293 65.5903 227.41 0 146.5 0C65.5904 0 0 65.5903 0 146.5C0 227.41 65.5904 293 146.5 293C227.41 293 293 227.41 293 146.5Z" fill="#FEFEFE"/>
    <path fill-rule="evenodd" clip-rule="evenodd" d="M136.902 162.545C131.541 163.586 114.437 162.765 107.851 162.766C100.464 162.768 86.8111 163.947 81.1684 160.71C73.281 156.185 74.1683 149.426 74.1683 138.631C74.1683 129.144 74.4464 119.324 74.2452 109.891C74.0459 100.555 75.8712 93.1289 79.2358 85.8934C82.7744 78.2833 86.8341 74.43 91.6937 69.618C96.2957 65.0608 103.383 61.3981 110.08 59.2747C119.197 56.3846 126.66 57.0363 136.589 57.036C150.665 57.0355 181.085 55.4568 192.68 58.9388C215.817 65.8859 229.645 85.859 229.289 108.858C229.151 117.721 229.986 128.691 229.084 137.257C227.475 152.552 214.724 163.57 197.206 162.687C196.696 141.21 165.883 125.073 146.619 144.047C139.143 151.41 140.059 152.377 136.902 162.545ZM67.6846 148.872C62.2348 149.912 58.2753 146.903 56.6083 152.487C58.7809 157.313 63.5511 154.671 68.8498 155.588C70.3005 157.28 70.9273 159.536 72.4154 161.227C79.3891 169.154 83.8983 168.948 93.9951 168.948C106.824 168.948 119.658 169.011 132.483 169.008C142.714 169.006 142.631 170.97 144.257 161.755C148.235 139.222 178.24 134.914 188.964 155.52C190.073 157.65 190.821 160.442 191.137 163.165C191.539 166.615 191.447 168.721 195.058 168.992C218.625 170.762 235.545 156.38 236.126 132.494C236.542 115.384 237.479 96.0198 229.53 81.0961C222.932 68.7106 211.737 58.4991 198.231 53.8719C186.145 49.7313 176.634 50.5361 163.274 50.5412C139.739 50.5506 113.142 47.2077 94.7253 59.3152C85.7328 65.2269 81.3338 70.5117 75.5046 79.0688C63.4481 96.7678 69.3034 125.591 67.6846 148.872Z" fill="#FEFEFE"/>
    <path fill-rule="evenodd" clip-rule="evenodd" d="M104.945 83.6682C108.543 82.7066 113.108 82.8576 117.109 83.0942C131.294 83.9329 128.401 96.8044 128.39 108.867C128.383 117.254 128.384 125.63 128.378 134.013C128.367 150.52 125.082 151.655 107.827 150.966C93.7335 150.404 96.7761 135.399 96.7441 125.289C96.7175 116.911 96.751 108.523 96.7481 100.143C96.7458 92.9417 95.8686 86.0934 104.945 83.6682ZM134.65 142.737C135.682 134.062 134.772 120.719 134.873 111.433C135.117 89.0045 137.192 74.9068 107.336 76.5962C98.5406 77.094 91.958 83.2809 90.6357 91.1071C89.4251 98.2721 90.3389 114.612 90.3389 122.723C90.3389 147.628 88.4155 158.683 118.139 157.627C126.909 157.316 133.679 150.9 134.65 142.737Z" fill="#FEFEFE"/>
    <path fill-rule="evenodd" clip-rule="evenodd" d="M153.762 107.328C153.139 102.491 153.364 92.8958 155.773 89.5844C159.167 84.9213 163.909 84.954 171.484 84.9511C185.48 84.9454 200.636 81.896 202.567 94.2696C203.267 98.7521 203.136 108.775 200.938 112.136C197.277 117.734 191.755 116.585 184.827 116.584C178.165 116.584 171.443 116.677 164.79 116.601C158.704 116.531 154.461 112.757 153.762 107.328ZM161.372 78.9983C156.832 80.2563 155.793 80.4564 152.792 83.5005C150.257 86.0708 148.581 88.1141 147.821 91.9371C146.453 98.8245 146.945 110.48 150.215 115.251C154.267 121.166 158.955 123.111 168.918 123.1C184.215 123.084 204.533 127.163 208.564 110.103C210.19 103.224 209.702 91.4784 206.277 86.3905C202.129 80.23 197.253 78.584 187.393 78.5968C182.223 78.6035 165.049 77.9791 161.372 78.9983Z" fill="#FEFEFE"/>
    <path fill-rule="evenodd" clip-rule="evenodd" d="M157.386 167.882C155.209 152.886 176.354 151.389 178.302 164.29C179.264 170.667 174.465 175.921 169.189 176.338C162.974 176.83 158.146 173.114 157.386 167.882ZM164.798 149.193C156.711 150.694 149.176 159.016 151.182 169.242C152.923 178.12 161.588 184.25 171.251 182.491C178.964 181.087 186.779 172.5 184.517 162.511C182.741 154.666 174.872 147.322 164.798 149.193Z" fill="#FEFEFE"/>
    <path d="M61.7788 214.633L50.9917 203.303V214.633H50.0949V194.255H50.9917V201.645L59.4964 194.255H60.7732L51.2361 202.406L62.9742 214.633H61.7788ZM69.5227 215.068C68.291 215.068 67.1769 214.764 66.1804 214.158C65.1842 213.551 64.4054 212.745 63.8439 211.74C63.2823 210.734 63.0014 209.643 63.0014 208.465C63.0014 207.306 63.2869 206.228 63.8574 205.232C64.4282 204.236 65.2068 203.443 66.1944 202.855C67.1814 202.266 68.2819 201.971 69.4954 201.971C70.6911 201.971 71.7824 202.266 72.7698 202.855C73.757 203.443 74.5314 204.236 75.093 205.232C75.6543 206.228 75.9352 207.306 75.9352 208.465C75.9352 209.679 75.6635 210.789 75.1201 211.794C74.5768 212.799 73.8204 213.596 72.8511 214.185C71.882 214.774 70.7725 215.068 69.5227 215.068ZM69.5227 214.307C70.5552 214.307 71.4974 214.045 72.3486 213.519C73.2 212.994 73.8655 212.292 74.3455 211.413C74.8257 210.535 75.0658 209.57 75.0658 208.52C75.0658 207.487 74.8211 206.527 74.3321 205.64C73.8431 204.752 73.1728 204.046 72.3214 203.52C71.47 202.995 70.528 202.732 69.4954 202.732C68.4629 202.732 67.5166 202.999 66.656 203.534C65.7958 204.068 65.1163 204.779 64.6183 205.667C64.1201 206.554 63.8711 207.514 63.8711 208.547C63.8711 209.579 64.1201 210.535 64.6183 211.413C65.1163 212.292 65.7958 212.994 66.656 213.519C67.5166 214.045 68.472 214.307 69.5227 214.307ZM91.2872 202.406V214.633H90.4178V204.281L84.9561 214.959L79.4675 203.901V214.633H78.7065V202.406H79.6848L85.0378 213.22L90.472 202.406H91.2872ZM101.178 214.796H100.96C99.7827 214.796 98.6914 214.502 97.6858 213.913C96.6807 213.324 95.8836 212.541 95.2949 211.563C94.706 210.585 94.4117 209.534 94.4117 208.411C94.4117 207.288 94.7106 206.242 95.3085 205.273C95.9062 204.304 96.7079 203.534 97.7132 202.963C98.7184 202.393 99.8009 202.107 100.96 202.107H101.178V197.542H102.047V202.107H102.183C103.342 202.107 104.411 202.393 105.389 202.963C106.367 203.534 107.142 204.299 107.712 205.259C108.283 206.219 108.568 207.27 108.568 208.411C108.568 209.552 108.288 210.612 107.726 211.59C107.164 212.568 106.399 213.347 105.43 213.927C104.461 214.506 103.397 214.796 102.237 214.796H102.047V220.013H101.178V214.796ZM101.178 214.035V202.868H100.96C99.964 202.868 99.0264 203.126 98.1478 203.642C97.2692 204.159 96.5629 204.847 96.0286 205.707C95.4942 206.568 95.2269 207.487 95.2269 208.465C95.2269 209.443 95.4942 210.363 96.0286 211.223C96.5629 212.084 97.2692 212.767 98.1478 213.275C99.0264 213.782 99.964 214.035 100.96 214.035H101.178ZM102.21 214.035C103.206 214.035 104.126 213.782 104.968 213.275C105.81 212.767 106.481 212.088 106.979 211.237C107.477 210.385 107.726 209.462 107.726 208.465C107.726 207.469 107.477 206.541 106.979 205.68C106.481 204.82 105.806 204.136 104.954 203.629C104.103 203.122 103.179 202.868 102.183 202.868H102.047V214.035H102.21ZM117.182 215.068C115.95 215.068 114.836 214.764 113.84 214.158C112.843 213.551 112.064 212.745 111.503 211.74C110.941 210.734 110.66 209.643 110.66 208.465C110.66 207.306 110.946 206.228 111.516 205.232C112.087 204.236 112.866 203.443 113.853 202.855C114.84 202.266 115.941 201.971 117.154 201.971C118.35 201.971 119.441 202.266 120.429 202.855C121.416 203.443 122.19 204.236 122.752 205.232C123.313 206.228 123.594 207.306 123.594 208.465C123.594 209.679 123.323 210.789 122.779 211.794C122.236 212.799 121.479 213.596 120.51 214.185C119.541 214.774 118.432 215.068 117.182 215.068ZM117.182 214.307C118.214 214.307 119.156 214.045 120.008 213.519C120.859 212.994 121.525 212.292 122.005 211.413C122.485 210.535 122.725 209.57 122.725 208.52C122.725 207.487 122.48 206.527 121.991 205.64C121.502 204.752 120.832 204.046 119.98 203.52C119.129 202.995 118.187 202.732 117.154 202.732C116.122 202.732 115.175 202.999 114.315 203.534C113.455 204.068 112.775 204.779 112.277 205.667C111.779 206.554 111.53 207.514 111.53 208.547C111.53 209.579 111.779 210.535 112.277 211.413C112.775 212.292 113.455 212.994 114.315 213.519C115.175 214.045 116.131 214.307 117.182 214.307ZM126.311 202.406H127.181V205.395C127.67 204.417 128.431 203.624 129.463 203.018C130.496 202.411 131.583 202.107 132.724 202.107C133.902 202.107 134.984 202.397 135.971 202.977C136.958 203.557 137.742 204.335 138.321 205.313C138.901 206.292 139.191 207.36 139.191 208.52C139.191 209.679 138.901 210.748 138.321 211.726C137.742 212.704 136.958 213.483 135.971 214.063C134.984 214.642 133.902 214.932 132.724 214.932C131.619 214.932 130.555 214.633 129.531 214.035C128.508 213.438 127.725 212.65 127.181 211.671V220.067H126.311V202.406ZM132.778 214.171C133.775 214.171 134.699 213.913 135.55 213.397C136.401 212.881 137.076 212.192 137.574 211.332C138.072 210.472 138.321 209.534 138.321 208.52C138.321 207.523 138.068 206.591 137.56 205.721C137.053 204.852 136.374 204.159 135.523 203.642C134.671 203.126 133.747 202.868 132.751 202.868C131.755 202.868 130.826 203.131 129.966 203.656C129.106 204.181 128.417 204.879 127.901 205.748C127.385 206.618 127.127 207.551 127.127 208.547C127.127 209.543 127.385 210.472 127.901 211.332C128.417 212.192 129.11 212.881 129.98 213.397C130.849 213.913 131.782 214.171 132.778 214.171ZM144.462 203.194H139.789V202.433H150.005V203.194H145.332V214.633H144.462V203.194ZM163.863 214.986C162.685 214.986 161.603 214.706 160.616 214.144C159.629 213.583 158.845 212.813 158.266 211.835C157.686 210.856 157.396 209.752 157.396 208.52C157.396 207.378 157.686 206.323 158.266 205.354C158.845 204.385 159.638 203.611 160.643 203.031C161.648 202.451 162.758 202.162 163.972 202.162C164.986 202.162 165.855 202.325 166.58 202.651C167.305 202.977 168.011 203.484 168.699 204.172V205.64C168.102 204.752 167.436 204.077 166.702 203.615C165.969 203.153 165.059 202.923 163.972 202.923C162.975 202.923 162.038 203.181 161.159 203.697C160.281 204.213 159.579 204.906 159.054 205.775C158.528 206.645 158.266 207.578 158.266 208.574C158.266 209.661 158.519 210.634 159.026 211.495C159.534 212.355 160.217 213.026 161.078 213.506C161.938 213.986 162.867 214.226 163.863 214.226C165.892 214.226 167.504 213.311 168.699 211.481V212.949C168.047 213.637 167.327 214.148 166.539 214.484C165.751 214.819 164.859 214.986 163.863 214.986ZM180.465 203.194H175.791V202.433H186.008V203.194H181.334V214.633H180.465V203.194ZM192.855 215.068C191.623 215.068 190.509 214.764 189.513 214.158C188.517 213.551 187.738 212.745 187.176 211.74C186.615 210.734 186.334 209.643 186.334 208.465C186.334 207.306 186.619 206.228 187.19 205.232C187.761 204.236 188.539 203.443 189.527 202.855C190.514 202.266 191.614 201.971 192.828 201.971C194.023 201.971 195.115 202.266 196.102 202.855C197.089 203.443 197.864 204.236 198.425 205.232C198.987 206.228 199.268 207.306 199.268 208.465C199.268 209.679 198.996 210.789 198.452 211.794C197.909 212.799 197.153 213.596 196.183 214.185C195.214 214.774 194.105 215.068 192.855 215.068ZM192.855 214.307C193.888 214.307 194.83 214.045 195.681 213.519C196.532 212.994 197.198 212.292 197.678 211.413C198.158 210.535 198.398 209.57 198.398 208.52C198.398 207.487 198.153 206.527 197.664 205.64C197.175 204.752 196.505 204.046 195.654 203.52C194.802 202.995 193.86 202.732 192.828 202.732C191.795 202.732 190.849 202.999 189.988 203.534C189.128 204.068 188.449 204.779 187.951 205.667C187.452 206.554 187.203 207.514 187.203 208.547C187.203 209.579 187.452 210.535 187.951 211.413C188.449 212.292 189.128 212.994 189.988 213.519C190.849 214.045 191.804 214.307 192.855 214.307ZM208.316 201.971C209.511 201.971 210.603 202.266 211.59 202.855C212.577 203.443 213.352 204.236 213.913 205.232C214.475 206.228 214.756 207.306 214.756 208.465C214.756 209.679 214.484 210.789 213.94 211.794C213.397 212.799 212.641 213.596 211.672 214.185C210.703 214.774 209.593 215.068 208.343 215.068C207.129 215.068 206.024 214.769 205.028 214.171C204.032 213.573 203.248 212.772 202.678 211.766C202.107 210.761 201.822 209.679 201.822 208.52V207.46C201.822 205.16 202.062 203.28 202.542 201.822C203.022 200.364 203.733 199.209 204.675 198.358C205.617 197.506 206.857 196.773 208.397 196.157L213.261 194.201V194.988L208.587 196.89C206.74 197.633 205.327 198.634 204.349 199.893C203.371 201.152 202.818 202.913 202.691 205.178C203.253 204.199 204.027 203.421 205.014 202.841C206.002 202.261 207.102 201.971 208.316 201.971ZM208.343 214.307C209.376 214.307 210.317 214.045 211.169 213.519C212.02 212.994 212.686 212.292 213.166 211.413C213.646 210.535 213.886 209.57 213.886 208.52C213.886 207.487 213.641 206.527 213.153 205.64C212.663 204.752 211.993 204.046 211.142 203.52C210.29 202.995 209.348 202.732 208.316 202.732C207.283 202.732 206.337 202.999 205.476 203.534C204.616 204.068 203.937 204.779 203.439 205.667C202.94 206.554 202.691 207.514 202.691 208.547C202.691 209.579 202.94 210.535 203.439 211.413C203.937 212.292 204.616 212.994 205.476 213.519C206.337 214.045 207.293 214.307 208.343 214.307ZM223.315 215.068C222.083 215.068 220.969 214.764 219.972 214.158C218.976 213.551 218.197 212.745 217.636 211.74C217.074 210.734 216.793 209.643 216.793 208.465C216.793 207.306 217.079 206.228 217.649 205.232C218.22 204.236 218.999 203.443 219.986 202.855C220.973 202.266 222.074 201.971 223.287 201.971C224.483 201.971 225.574 202.266 226.562 202.855C227.549 203.443 228.323 204.236 228.885 205.232C229.446 206.228 229.727 207.306 229.727 208.465C229.727 209.679 229.455 210.789 228.912 211.794C228.369 212.799 227.612 213.596 226.643 214.185C225.674 214.774 224.564 215.068 223.315 215.068ZM223.315 214.307C224.347 214.307 225.289 214.045 226.141 213.519C226.992 212.994 227.657 212.292 228.138 211.413C228.618 210.535 228.858 209.57 228.858 208.52C228.858 207.487 228.613 206.527 228.124 205.64C227.635 204.752 226.965 204.046 226.113 203.52C225.262 202.995 224.32 202.732 223.287 202.732C222.255 202.732 221.309 202.999 220.448 203.534C219.588 204.068 218.908 204.779 218.41 205.667C217.912 206.554 217.663 207.514 217.663 208.547C217.663 209.579 217.912 210.535 218.41 211.413C218.908 212.292 219.588 212.994 220.448 213.519C221.309 214.045 222.264 214.307 223.315 214.307ZM232.498 202.406H233.341V213.411L242.117 202.406H242.905V214.633H242.063V203.656L233.259 214.633H232.498V202.406ZM237.716 198.901C236.502 198.901 235.551 198.602 234.863 198.004C234.174 197.407 233.812 196.655 233.776 195.749H234.537C234.591 196.438 234.903 197.008 235.474 197.461C236.045 197.914 236.783 198.14 237.688 198.14C238.576 198.14 239.305 197.914 239.876 197.461C240.446 197.008 240.777 196.438 240.867 195.749H241.628C241.592 196.637 241.221 197.384 240.514 197.991C239.808 198.598 238.875 198.901 237.716 198.901Z" fill="white"/>
    <path d="M61.4203 214.974L51.4861 204.539V215.129H49.5999V193.761H51.4861V200.562L59.3136 193.761H62.1114L51.9536 202.442L64.1325 215.129H61.5675L61.4203 214.974ZM69.5221 215.563C68.8633 215.563 68.2337 215.481 67.6344 215.318C67.0366 215.155 66.4662 214.909 65.9243 214.579C65.389 214.254 64.9122 213.874 64.4931 213.44C64.0735 213.006 63.713 212.519 63.4119 211.981C63.1121 211.441 62.8859 210.878 62.7344 210.289C62.5827 209.698 62.5064 209.09 62.5064 208.465C62.5064 207.846 62.5836 207.244 62.7378 206.662C62.8918 206.08 63.122 205.521 63.4275 204.987C63.7325 204.454 64.0958 203.972 64.517 203.544C64.9339 203.12 65.4092 202.749 65.9416 202.432C66.4756 202.113 67.0393 201.874 67.6315 201.715C68.2248 201.557 68.8462 201.477 69.4946 201.477C70.1345 201.477 70.7491 201.557 71.3375 201.715C71.9254 201.874 72.4875 202.113 73.0221 202.431C73.5521 202.747 74.0265 203.119 74.4441 203.546C74.859 203.971 75.2186 204.453 75.5222 204.99C75.8237 205.523 76.0499 206.082 76.2018 206.665C76.3535 207.248 76.4296 207.848 76.4296 208.465C76.4296 209.107 76.3563 209.728 76.2102 210.325C76.0638 210.923 75.8445 211.491 75.5538 212.028C75.2619 212.569 74.9112 213.055 74.5027 213.486C74.0952 213.916 73.63 214.289 73.1081 214.607C72.5794 214.926 72.0162 215.166 71.4176 215.325C70.8191 215.483 70.1872 215.563 69.5221 215.563ZM69.5221 213.813C69.9969 213.813 70.4466 213.753 70.8711 213.635C71.297 213.516 71.7034 213.337 72.089 213.099C72.4768 212.86 72.8234 212.58 73.128 212.258C73.4321 211.938 73.6938 211.577 73.9125 211.177C74.1316 210.777 74.2962 210.355 74.4061 209.914C74.5158 209.473 74.5708 209.008 74.5708 208.52C74.5708 208.045 74.5146 207.587 74.4026 207.147C74.2902 206.707 74.1221 206.283 73.899 205.877C73.6748 205.47 73.4097 205.106 73.1045 204.785C72.7973 204.461 72.4496 204.18 72.0615 203.94C71.6759 203.702 71.2698 203.523 70.8442 203.405C70.4198 203.286 69.9697 203.227 69.4946 203.227C69.0216 203.227 68.5711 203.288 68.1441 203.408C67.7148 203.529 67.3054 203.711 66.9157 203.952C66.5208 204.198 66.1678 204.484 65.8578 204.809C65.5479 205.133 65.2777 205.5 65.0488 205.908C64.8194 206.317 64.6476 206.74 64.5347 207.176C64.4216 207.612 64.3651 208.069 64.3651 208.547C64.3651 209.025 64.4216 209.481 64.5347 209.914C64.6478 210.349 64.8189 210.768 65.0468 211.17C65.2744 211.572 65.5446 211.934 65.8554 212.256C66.1658 212.576 66.5185 212.857 66.9123 213.097C67.3051 213.337 67.7171 213.517 68.1476 213.635C68.5781 213.753 69.0364 213.813 69.5221 213.813ZM91.7808 202.406V215.129H89.9219V206.33L84.9482 216.056L79.9616 206.008V215.129H78.2113V201.912H78.972V201.794L79.0304 201.912H79.9903L85.0414 212.115L90.1685 201.912H91.7808V202.406ZM100.683 215.287C100.15 215.267 99.6328 215.189 99.1309 215.053C98.5453 214.895 97.98 214.656 97.4357 214.338C96.8974 214.023 96.4143 213.655 95.9878 213.236C95.5582 212.814 95.1855 212.341 94.8703 211.818C94.5534 211.289 94.3148 210.741 94.1562 210.174C93.9962 209.603 93.9161 209.016 93.9161 208.412C93.9161 207.805 93.9974 207.217 94.1597 206.648C94.3211 206.085 94.5641 205.539 94.8882 205.014C95.2098 204.493 95.5859 204.025 96.0153 203.613C96.4458 203.199 96.9304 202.839 97.4691 202.534C98.0092 202.228 98.5708 201.997 99.1523 201.844C99.6501 201.713 100.161 201.637 100.683 201.618V197.048H102.541V201.621C103.036 201.646 103.516 201.72 103.981 201.844C104.561 201.999 105.113 202.23 105.638 202.536C106.161 202.843 106.632 203.202 107.049 203.613C107.468 204.027 107.831 204.493 108.137 205.008C108.446 205.528 108.677 206.071 108.831 206.638C108.985 207.205 109.063 207.797 109.063 208.412C109.063 209.022 108.986 209.614 108.835 210.187C108.683 210.761 108.456 211.311 108.155 211.835C107.854 212.359 107.496 212.833 107.082 213.254C106.67 213.673 106.203 214.039 105.682 214.351C105.156 214.665 104.605 214.901 104.032 215.057C103.552 215.188 103.055 215.264 102.541 215.285V220.507H100.683V215.287ZM100.683 213.534V203.37C100.324 203.389 99.9765 203.445 99.6401 203.537C99.2128 203.654 98.7987 203.832 98.3963 204.068C97.9928 204.305 97.6279 204.582 97.3021 204.9C96.9789 205.214 96.6935 205.571 96.4467 205.969C96.2031 206.361 96.0208 206.765 95.9005 207.179C95.7813 207.59 95.7214 208.019 95.7214 208.465C95.7214 208.911 95.7813 209.341 95.9005 209.752C96.0213 210.168 96.2033 210.572 96.446 210.964C96.6935 211.36 96.9792 211.715 97.3031 212.029C97.6276 212.343 97.991 212.616 98.3923 212.848C98.7946 213.079 99.2093 213.253 99.6368 213.368C99.9759 213.46 100.324 213.515 100.683 213.534ZM102.541 213.531C103.32 213.481 104.043 213.255 104.712 212.852C105.099 212.618 105.445 212.347 105.749 212.04C106.057 211.728 106.325 211.377 106.553 210.989C106.779 210.599 106.949 210.195 107.062 209.777C107.175 209.359 107.231 208.921 107.231 208.465C107.231 208.009 107.175 207.57 107.062 207.15C106.948 206.726 106.778 206.319 106.551 205.928C106.323 205.533 106.054 205.18 105.746 204.868C105.439 204.557 105.09 204.285 104.7 204.053C104.312 203.821 103.909 203.648 103.493 203.534C103.188 203.45 102.871 203.397 102.541 203.375V213.531ZM117.181 215.563C116.522 215.563 115.893 215.481 115.293 215.318C114.695 215.155 114.125 214.909 113.583 214.579C112.513 213.927 111.676 213.06 111.071 211.979C110.771 211.441 110.545 210.877 110.393 210.289C110.242 209.698 110.165 209.09 110.165 208.465C110.165 207.846 110.242 207.245 110.397 206.662C110.551 206.08 110.781 205.521 111.086 204.987C111.392 204.454 111.755 203.972 112.176 203.544C112.596 203.117 113.072 202.745 113.602 202.43C114.136 202.112 114.7 201.873 115.291 201.715C115.884 201.557 116.505 201.477 117.154 201.477C117.793 201.477 118.408 201.557 118.996 201.715C119.583 201.873 120.144 202.112 120.679 202.431C121.211 202.747 121.686 203.119 122.103 203.546C122.518 203.971 122.878 204.453 123.181 204.99C123.483 205.523 123.709 206.082 123.861 206.665C124.012 207.248 124.089 207.848 124.089 208.465C124.089 209.107 124.015 209.728 123.869 210.325C123.723 210.923 123.504 211.491 123.213 212.028C122.921 212.569 122.57 213.054 122.162 213.485C121.754 213.915 121.289 214.289 120.767 214.607C120.238 214.926 119.675 215.166 119.077 215.325C118.478 215.483 117.846 215.563 117.181 215.563ZM117.181 213.813C117.656 213.813 118.106 213.753 118.53 213.635C118.956 213.516 119.363 213.337 119.748 213.099C120.136 212.86 120.482 212.58 120.787 212.258C121.09 211.938 121.352 211.577 121.57 211.177C121.791 210.774 121.956 210.353 122.065 209.914C122.175 209.473 122.23 209.008 122.23 208.52C122.23 208.045 122.174 207.587 122.062 207.147C121.949 206.707 121.781 206.283 121.558 205.877C121.334 205.47 121.069 205.106 120.764 204.785C120.457 204.461 120.109 204.18 119.72 203.94C119.335 203.702 118.929 203.523 118.503 203.405C118.079 203.286 117.628 203.227 117.154 203.227C116.681 203.227 116.23 203.288 115.803 203.408C115.374 203.529 114.964 203.711 114.575 203.952C114.18 204.198 113.827 204.484 113.517 204.808C113.207 205.133 112.937 205.5 112.708 205.908C112.478 206.317 112.307 206.74 112.194 207.176C112.081 207.612 112.024 208.069 112.024 208.547C112.024 209.025 112.081 209.481 112.194 209.914C112.307 210.349 112.478 210.768 112.706 211.17C112.934 211.572 113.203 211.934 113.515 212.256C113.825 212.577 114.178 212.857 114.571 213.097C114.964 213.337 115.376 213.517 115.806 213.635C116.237 213.753 116.695 213.813 117.181 213.813ZM126.312 201.912H127.675V203.816L127.762 203.725C128.172 203.297 128.656 202.92 129.213 202.593C129.766 202.267 130.336 202.023 130.92 201.86C131.51 201.695 132.111 201.613 132.723 201.613C133.354 201.613 133.962 201.691 134.547 201.847C135.128 202.003 135.686 202.238 136.219 202.552C136.751 202.863 137.227 203.228 137.647 203.646C138.069 204.065 138.435 204.537 138.746 205.062C139.059 205.59 139.294 206.143 139.451 206.721C139.607 207.298 139.685 207.898 139.685 208.52C139.685 209.142 139.607 209.742 139.45 210.319C139.295 210.896 139.059 211.449 138.746 211.977C138.435 212.501 138.069 212.974 137.647 213.394C137.227 213.812 136.751 214.177 136.219 214.488C135.685 214.802 135.127 215.037 134.545 215.193C133.961 215.349 133.353 215.427 132.723 215.427C132.128 215.427 131.541 215.346 130.963 215.184C130.388 215.022 129.827 214.782 129.282 214.463C128.735 214.144 128.25 213.771 127.826 213.345L127.675 213.188V220.562H125.817V201.912H126.312ZM126.806 209.982L126.808 209.985L126.806 209.979V209.982ZM132.778 213.677C133.234 213.677 133.671 213.618 134.086 213.502C134.505 213.385 134.908 213.21 135.294 212.976C135.682 212.74 136.032 212.463 136.342 212.147C136.649 211.834 136.918 211.479 137.147 211.085C137.374 210.693 137.544 210.284 137.657 209.858C137.77 209.433 137.826 208.987 137.826 208.52C137.826 208.065 137.769 207.626 137.653 207.202C137.538 206.778 137.365 206.367 137.133 205.971C136.901 205.57 136.629 205.212 136.319 204.896C136.006 204.577 135.656 204.299 135.268 204.064C134.882 203.83 134.479 203.654 134.06 203.537C133.644 203.421 133.207 203.363 132.75 203.363C132.296 203.363 131.858 203.422 131.439 203.541C131.019 203.66 130.613 203.839 130.223 204.078C129.826 204.32 129.47 204.601 129.155 204.919C128.84 205.238 128.563 205.598 128.326 205.999C128.089 206.398 127.912 206.809 127.795 207.231C127.679 207.651 127.621 208.09 127.621 208.547C127.621 209.004 127.679 209.441 127.795 209.859C127.912 210.279 128.088 210.686 128.324 211.079C128.56 211.472 128.837 211.827 129.155 212.143C129.471 212.457 129.83 212.734 130.231 212.972C130.629 213.208 131.04 213.385 131.462 213.502C131.882 213.618 132.32 213.677 132.778 213.677ZM143.966 203.689H139.294V201.939H150.499V203.689H145.827V215.129H143.966V203.689ZM163.862 215.481C163.236 215.481 162.63 215.405 162.044 215.253C161.46 215.102 160.903 214.875 160.372 214.573C159.841 214.271 159.363 213.912 158.941 213.497C158.518 213.081 158.151 212.611 157.84 212.087C157.528 211.559 157.292 210.995 157.135 210.398C156.979 209.801 156.9 209.175 156.9 208.52C156.9 207.91 156.98 207.317 157.137 206.743C157.295 206.17 157.53 205.623 157.842 205.101C158.154 204.579 158.523 204.11 158.95 203.693C159.373 203.28 159.856 202.917 160.396 202.605C160.936 202.293 161.506 202.058 162.105 201.902C162.704 201.746 163.327 201.668 163.971 201.668C164.502 201.668 165.003 201.712 165.472 201.799C165.946 201.887 166.382 202.022 166.781 202.2C167.172 202.375 167.558 202.601 167.941 202.876C168.322 203.149 168.691 203.465 169.048 203.822L169.193 203.967V207.259L168.289 205.916C168.006 205.495 167.709 205.128 167.4 204.814C167.094 204.504 166.774 204.243 166.439 204.033C166.118 203.831 165.755 203.678 165.35 203.575C164.935 203.471 164.475 203.418 163.971 203.418C163.512 203.418 163.071 203.476 162.65 203.592C162.225 203.709 161.81 203.885 161.408 204.122C161.005 204.358 160.642 204.637 160.319 204.955C160 205.27 159.718 205.629 159.476 206.03C159.236 206.427 159.056 206.838 158.938 207.26C158.82 207.68 158.76 208.119 158.76 208.574C158.76 209.08 158.818 209.554 158.933 209.996C159.048 210.438 159.221 210.854 159.45 211.245C159.683 211.638 159.955 211.987 160.265 212.291C160.575 212.595 160.926 212.856 161.317 213.074C161.711 213.294 162.12 213.459 162.543 213.568C162.962 213.677 163.402 213.732 163.862 213.732C164.792 213.732 165.621 213.524 166.35 213.111C167.085 212.693 167.73 212.06 168.285 211.211L169.193 209.821V213.142L169.056 213.287C168.706 213.656 168.34 213.978 167.957 214.249C167.567 214.527 167.158 214.757 166.732 214.938C166.306 215.119 165.851 215.255 165.37 215.346C164.89 215.436 164.387 215.481 163.862 215.481ZM179.969 203.689H175.297V201.939H186.502V203.689H181.828V215.129H179.969V203.689ZM192.855 215.563C192.2 215.563 191.57 215.48 190.966 215.316C190.365 215.152 189.795 214.906 189.257 214.579C188.721 214.254 188.244 213.874 187.825 213.44C187.407 213.007 187.047 212.52 186.745 211.979C186.444 211.442 186.218 210.878 186.066 210.289C185.914 209.698 185.838 209.09 185.838 208.465C185.838 207.846 185.915 207.245 186.07 206.663C186.224 206.08 186.455 205.521 186.76 204.987C187.065 204.454 187.429 203.973 187.85 203.544C188.268 203.118 188.743 202.747 189.273 202.431C189.811 202.112 190.374 201.873 190.965 201.715C191.558 201.557 192.179 201.477 192.828 201.477C193.467 201.477 194.082 201.557 194.67 201.715C195.256 201.873 195.817 202.112 196.353 202.431C196.885 202.747 197.36 203.119 197.777 203.547C198.195 203.974 198.555 204.456 198.856 204.99C199.157 205.528 199.383 206.086 199.534 206.664C199.685 207.248 199.761 207.848 199.761 208.465C199.761 209.107 199.688 209.727 199.542 210.324C199.396 210.922 199.177 211.49 198.887 212.028C198.595 212.569 198.244 213.055 197.835 213.486C197.427 213.916 196.961 214.289 196.44 214.607C195.911 214.926 195.348 215.166 194.749 215.325C194.151 215.483 193.519 215.563 192.855 215.563ZM192.855 213.813C193.33 213.813 193.78 213.753 194.204 213.635C194.63 213.516 195.036 213.337 195.422 213.099C195.81 212.86 196.156 212.58 196.461 212.258C196.764 211.938 197.026 211.577 197.244 211.177C197.463 210.777 197.628 210.355 197.738 209.914C197.847 209.473 197.902 209.008 197.902 208.52C197.902 208.044 197.846 207.587 197.735 207.147C197.623 206.707 197.454 206.283 197.231 205.877C197.007 205.471 196.742 205.106 196.438 204.785C196.131 204.462 195.782 204.18 195.394 203.94C195.009 203.702 194.603 203.523 194.177 203.405C193.753 203.286 193.303 203.227 192.828 203.227C192.355 203.227 191.904 203.288 191.477 203.408C191.047 203.529 190.637 203.711 190.249 203.952C189.854 204.198 189.501 204.484 189.191 204.807C188.881 205.132 188.611 205.5 188.382 205.908C188.152 206.317 187.98 206.739 187.867 207.175C187.754 207.61 187.698 208.068 187.698 208.547C187.698 209.026 187.754 209.483 187.867 209.916C187.981 210.35 188.152 210.768 188.38 211.17C188.607 211.572 188.878 211.935 189.189 212.257C189.498 212.576 189.851 212.857 190.245 213.097C190.638 213.337 191.049 213.517 191.48 213.635C191.91 213.753 192.369 213.813 192.855 213.813ZM208.316 201.477C208.955 201.477 209.57 201.557 210.158 201.715C210.744 201.873 211.305 202.112 211.841 202.431C212.375 202.749 212.849 203.121 213.264 203.546C213.68 203.971 214.039 204.453 214.342 204.99C214.644 205.523 214.87 206.082 215.021 206.665C215.173 207.248 215.25 207.848 215.25 208.465C215.25 209.761 214.958 210.949 214.375 212.028C214.082 212.569 213.731 213.055 213.323 213.486C212.915 213.916 212.45 214.289 211.928 214.607C211.399 214.926 210.836 215.166 210.237 215.325C209.639 215.483 209.007 215.563 208.342 215.563C207.693 215.563 207.071 215.482 206.475 215.321C205.88 215.16 205.313 214.918 204.775 214.595C204.239 214.274 203.761 213.897 203.339 213.466C202.919 213.035 202.555 212.549 202.249 212.01C201.942 211.47 201.711 210.909 201.558 210.327C201.403 209.742 201.326 209.139 201.326 208.52V207.46C201.326 206.298 201.388 205.233 201.512 204.264C201.637 203.287 201.824 202.422 202.072 201.668C202.325 200.901 202.638 200.212 203.013 199.603C203.391 198.989 203.835 198.452 204.344 197.992C204.842 197.542 205.415 197.125 206.06 196.744C206.7 196.365 207.418 196.017 208.213 195.699L213.755 193.469V195.321L208.773 197.348C207.88 197.706 207.098 198.124 206.426 198.6C205.763 199.069 205.201 199.602 204.738 200.196C204.285 200.779 203.93 201.483 203.672 202.305C203.557 202.67 203.462 203.059 203.385 203.47C203.791 203.069 204.251 202.717 204.765 202.416C205.299 202.102 205.862 201.867 206.454 201.712C207.048 201.555 207.669 201.477 208.316 201.477ZM202.322 206.806L202.316 207.298C202.34 207.174 202.368 207.051 202.4 206.928C202.449 206.738 202.508 206.551 202.575 206.367L202.322 206.806ZM208.342 213.813C208.818 213.813 209.268 213.753 209.692 213.635C210.117 213.516 210.523 213.337 210.909 213.099C211.297 212.86 211.644 212.58 211.949 212.258C212.253 211.938 212.514 211.577 212.732 211.177C212.951 210.777 213.116 210.355 213.226 209.914C213.336 209.473 213.391 209.008 213.391 208.52C213.391 208.044 213.335 207.587 213.223 207.147C213.111 206.707 212.942 206.283 212.719 205.877C212.494 205.47 212.23 205.106 211.925 204.785C211.618 204.461 211.271 204.18 210.883 203.94C210.497 203.702 210.091 203.523 209.665 203.405C209.241 203.286 208.791 203.227 208.316 203.227C207.843 203.227 207.392 203.288 206.965 203.408C206.535 203.53 206.124 203.711 205.735 203.953C205.343 204.196 204.991 204.482 204.68 204.807C204.369 205.132 204.099 205.5 203.87 205.908C203.64 206.317 203.468 206.74 203.355 207.176C203.242 207.611 203.185 208.069 203.185 208.547C203.185 209.026 203.242 209.482 203.355 209.915C203.468 210.349 203.639 210.768 203.868 211.17C204.096 211.572 204.366 211.935 204.677 212.257C204.987 212.577 205.339 212.857 205.733 213.097C206.126 213.337 206.537 213.517 206.968 213.635C207.398 213.753 207.856 213.813 208.342 213.813ZM223.315 215.563C222.66 215.563 222.03 215.48 221.425 215.316C220.824 215.152 220.254 214.906 219.717 214.579C219.181 214.254 218.704 213.874 218.284 213.44C217.866 213.007 217.506 212.52 217.204 211.979C216.904 211.442 216.677 210.878 216.526 210.289C216.374 209.698 216.297 209.09 216.297 208.465C216.297 207.846 216.375 207.246 216.529 206.663C216.684 206.08 216.914 205.521 217.22 204.987C217.525 204.454 217.888 203.973 218.309 203.544C218.728 203.118 219.203 202.747 219.732 202.431C220.27 202.112 220.834 201.873 221.424 201.715C222.018 201.557 222.639 201.477 223.287 201.477C223.927 201.477 224.541 201.557 225.13 201.715C225.716 201.873 226.277 202.112 226.813 202.431C227.345 202.747 227.819 203.119 228.237 203.547C228.655 203.974 229.015 204.456 229.315 204.99C229.616 205.528 229.843 206.086 229.993 206.664C230.145 207.248 230.221 207.848 230.221 208.465C230.221 209.107 230.148 209.727 230.002 210.324C229.856 210.922 229.637 211.49 229.347 212.028C229.054 212.569 228.703 213.055 228.295 213.486C227.886 213.916 227.421 214.289 226.899 214.607C226.37 214.926 225.807 215.166 225.208 215.325C224.611 215.483 223.979 215.563 223.315 215.563ZM223.315 213.813C223.79 213.813 224.239 213.753 224.664 213.635C225.09 213.516 225.496 213.337 225.882 213.099C226.269 212.86 226.616 212.58 226.92 212.258C227.224 211.938 227.485 211.577 227.704 211.177C227.923 210.777 228.088 210.355 228.197 209.914C228.307 209.473 228.362 209.008 228.362 208.52C228.362 208.044 228.306 207.587 228.194 207.147C228.082 206.707 227.914 206.283 227.69 205.877C227.467 205.47 227.202 205.106 226.897 204.785C226.59 204.461 226.242 204.18 225.854 203.94C225.469 203.702 225.062 203.523 224.637 203.405C224.212 203.286 223.762 203.227 223.287 203.227C222.814 203.227 222.363 203.288 221.936 203.408C221.506 203.529 221.097 203.711 220.708 203.952C220.313 204.198 219.96 204.483 219.651 204.807C219.34 205.132 219.07 205.5 218.841 205.908C218.611 206.317 218.44 206.739 218.327 207.175C218.214 207.61 218.158 208.068 218.158 208.547C218.158 209.026 218.214 209.483 218.327 209.916C218.44 210.35 218.611 210.768 218.839 211.17C219.067 211.572 219.337 211.935 219.648 212.257C219.958 212.577 220.311 212.857 220.705 213.097C221.097 213.337 221.509 213.517 221.939 213.635C222.369 213.753 222.828 213.813 223.315 213.813ZM232.499 201.912H233.835V211.998L241.88 201.912H243.4V215.129H241.567V205.063L233.495 215.129H232.004V201.912H232.499ZM237.716 199.397C237.06 199.397 236.469 199.314 235.945 199.149C235.404 198.979 234.936 198.722 234.539 198.378C234.144 198.034 233.84 197.643 233.629 197.207C233.419 196.77 233.303 196.29 233.282 195.769L233.262 195.255H234.993L235.029 195.711C235.051 195.986 235.122 196.235 235.243 196.456C235.369 196.685 235.548 196.891 235.779 197.074C236.018 197.263 236.291 197.405 236.6 197.499C236.918 197.597 237.281 197.646 237.688 197.646C238.084 197.646 238.439 197.597 238.754 197.499C239.06 197.404 239.331 197.263 239.568 197.074C239.805 196.886 239.99 196.677 240.124 196.446C240.256 196.218 240.341 195.964 240.377 195.686L240.434 195.255H242.141L242.12 195.769C242.1 196.283 241.981 196.759 241.765 197.193C241.549 197.627 241.239 198.019 240.835 198.366C240.431 198.712 239.965 198.972 239.436 199.144C238.918 199.312 238.345 199.397 237.716 199.397Z" fill="white"/>
</svg>
