<svg xmlns="http://www.w3.org/2000/svg" width="35" height="35" viewBox="0 0 35 35" fill="none">
    <path d="M30.625 23.9458V29.1025C30.6252 29.4717 30.4853 29.8273 30.2336 30.0974C29.9819 30.3675 29.6371 30.5321 29.2688 30.5579C28.6315 30.6017 28.1108 30.625 27.7083 30.625C14.821 30.625 4.375 20.179 4.375 7.29167C4.375 6.88917 4.39688 6.36854 4.44208 5.73125C4.46793 5.36294 4.63251 5.01814 4.90263 4.76643C5.17275 4.51472 5.52828 4.37483 5.8975 4.375H11.0542C11.2351 4.37482 11.4096 4.44188 11.5438 4.56315C11.678 4.68443 11.7623 4.85127 11.7804 5.03125C11.814 5.36667 11.8446 5.63354 11.8738 5.83625C12.1636 7.85885 12.7575 9.82601 13.6354 11.671C13.774 11.9627 13.6835 12.3113 13.421 12.4979L10.274 14.7467C12.1982 19.2302 15.7712 22.8033 20.2548 24.7275L22.5006 21.5863C22.5924 21.4579 22.7263 21.3659 22.8791 21.3262C23.0318 21.2865 23.1936 21.3016 23.3363 21.369C25.181 22.2453 27.1477 22.8378 29.1696 23.1262C29.3723 23.1554 29.6392 23.186 29.9717 23.2196C30.1514 23.238 30.3179 23.3225 30.4388 23.4567C30.5598 23.5909 30.6252 23.7652 30.625 23.9458Z" fill="currentcolor"/>
</svg>