<svg xmlns="http://www.w3.org/2000/svg" width="121" height="121" viewBox="0 0 121 121" fill="none">
    <path d="M114.383 57.6641H101.337L109.278 49.7234C110.412 48.5891 110.412 46.8875 109.278 45.7531C108.144 44.6188 106.442 44.6188 105.308 45.7531L93.3969 57.6641H84.5109L89.2375 52.9375C90.3719 51.8031 90.3719 50.1016 89.2375 48.9672C88.1031 47.8328 86.4016 47.8328 85.2672 48.9672L76.5703 57.6641H67.4953L84.5109 40.6484H101.337C102.85 40.6484 104.173 39.325 104.173 37.8125C104.173 36.3 102.85 34.9766 101.337 34.9766H90.1828L100.581 24.5781C101.716 23.4438 101.716 21.7422 100.581 20.6078C99.4469 19.4734 97.7453 19.4734 96.6109 20.6078L86.2125 31.0062V19.8516C86.0234 18.15 84.8891 17.0156 83.1875 17.0156C81.4859 17.0156 80.3516 18.3391 80.3516 19.8516V36.6781L63.3359 53.6937V44.6188L72.0328 35.9219C73.1672 34.7875 73.1672 33.0859 72.0328 31.9516C70.8984 30.8172 69.1969 30.8172 68.0625 31.9516L63.3359 36.6781V27.7922L75.2469 15.8812C76.3812 14.7469 76.3812 13.0453 75.2469 11.9109C74.1125 10.7766 72.4109 10.7766 71.2766 11.9109L63.3359 19.8516V6.61719C63.3359 5.10469 62.0125 3.78125 60.5 3.78125C58.9875 3.78125 57.6641 5.10469 57.6641 6.61719V19.6625L49.7234 11.7219C48.5891 10.5875 46.8875 10.5875 45.7531 11.7219C44.6188 12.8562 44.6188 14.5578 45.7531 15.6922L57.6641 27.6031V36.4891L52.9375 31.7625C51.8031 30.6281 50.1016 30.6281 48.9672 31.7625C47.8328 32.8969 47.8328 34.5984 48.9672 35.7328L57.6641 44.4297V53.5047L40.6484 36.4891V19.6625C40.6484 18.15 39.325 17.0156 37.8125 17.0156C36.3 17.0156 34.9766 18.3391 34.9766 19.8516V31.0062L24.5781 20.6078C23.4438 19.4734 21.7422 19.4734 20.6078 20.6078C19.4734 21.7422 19.4734 23.4438 20.6078 24.5781L31.0062 34.9766H19.8516C18.15 34.9766 17.0156 36.1109 17.0156 37.8125C17.0156 39.5141 18.3391 40.6484 19.8516 40.6484H36.6781L53.6937 57.6641H44.6188L35.9219 48.9672C34.7875 47.8328 33.0859 47.8328 31.9516 48.9672C30.8172 50.1016 30.8172 51.8031 31.9516 52.9375L36.6781 57.6641H27.7922L15.8812 45.7531C14.7469 44.6188 13.0453 44.6188 11.9109 45.7531C10.7766 46.8875 10.7766 48.5891 11.9109 49.7234L19.8516 57.6641H6.61719C5.10469 57.6641 3.78125 58.9875 3.78125 60.5C3.78125 62.0125 5.10469 63.3359 6.61719 63.3359H19.6625L11.7219 71.2766C10.5875 72.4109 10.5875 74.1125 11.7219 75.2469C12.2891 75.8141 13.0453 76.0031 13.8016 76.0031C14.5578 76.0031 15.3141 75.8141 15.8812 75.2469L27.7922 63.3359H36.6781L31.7625 68.0625C30.6281 69.1969 30.6281 70.8984 31.7625 72.0328C32.3297 72.6 33.0859 72.7891 33.8422 72.7891C34.5984 72.7891 35.3547 72.6 35.9219 72.0328L44.6188 63.3359H53.6937L36.6781 80.3516H19.8516C18.15 80.3516 17.0156 81.675 17.0156 83.1875C17.0156 84.7 18.3391 86.0234 19.8516 86.0234H31.0062L20.6078 96.4219C19.4734 97.5563 19.4734 99.2578 20.6078 100.392C21.175 100.959 21.9312 101.148 22.6875 101.148C23.4438 101.148 24.2 100.959 24.7672 100.392L35.1656 89.9937V101.148C35.1656 102.661 36.4891 103.984 38.0016 103.984C39.5141 103.984 40.8375 102.661 40.8375 101.148V84.3219L57.8531 67.3062V76.3813L48.9672 85.0781C47.8328 86.2125 47.8328 87.9141 48.9672 89.0484C49.5344 89.6156 50.2906 89.8047 51.0469 89.8047C51.8031 89.8047 52.5594 89.6156 53.1266 89.0484L57.8531 84.3219V93.2078L45.9422 105.119C44.8078 106.253 44.8078 107.955 45.9422 109.089C46.5094 109.656 47.2656 109.845 48.0219 109.845C48.7781 109.845 49.5344 109.656 50.1016 109.089L58.0422 101.148V114.194C58.0422 115.706 59.3656 117.03 60.8781 117.03C62.3906 117.03 63.7141 115.706 63.7141 114.194V101.148L71.6547 109.089C72.2219 109.656 72.9781 109.845 73.7344 109.845C74.4906 109.845 75.2469 109.656 75.8141 109.089C76.9484 107.955 76.9484 106.253 75.8141 105.119L63.9031 93.2078V84.3219L68.6297 89.0484C69.1969 89.6156 69.9531 89.8047 70.7094 89.8047C71.4656 89.8047 72.2219 89.6156 72.7891 89.0484C73.9234 87.9141 73.9234 86.2125 72.7891 85.0781L64.0922 76.3813V67.3062L81.1078 84.3219V101.148C81.1078 102.661 82.4313 103.984 83.9438 103.984C85.4563 103.984 86.7797 102.661 86.7797 101.148V89.9937L97.1781 100.392C97.7453 100.959 98.5016 101.148 99.2578 101.148C100.014 101.148 100.77 100.959 101.337 100.392C102.472 99.2578 102.472 97.5563 101.337 96.4219L90.9391 86.0234H102.094C103.606 86.0234 104.93 84.7 104.93 83.1875C104.93 81.675 103.606 80.3516 102.094 80.3516H85.2672L68.2516 63.3359H77.3266L86.0234 72.0328C86.5906 72.6 87.3469 72.7891 88.1031 72.7891C88.8594 72.7891 89.6156 72.6 90.1828 72.0328C91.3172 70.8984 91.3172 69.1969 90.1828 68.0625L85.4563 63.3359H94.3422L106.253 75.2469C106.82 75.8141 107.577 76.0031 108.333 76.0031C109.089 76.0031 109.845 75.8141 110.413 75.2469C111.547 74.1125 111.547 72.4109 110.413 71.2766L102.472 63.3359H115.517C117.03 63.3359 118.353 62.0125 118.353 60.5C118.353 58.9875 115.895 57.6641 114.383 57.6641Z" fill="white"/>
</svg>