<svg xmlns="http://www.w3.org/2000/svg" width="40" height="40" viewBox="0 0 40 40" fill="none">
    <path fill-rule="evenodd" clip-rule="evenodd" d="M40 20C40 31.0459 31.0457 40 20 40C8.95435 40 0 31.0459 0 20C0 8.9541 8.95435 0 20 0C31.0457 0 40 8.9541 40 20ZM21.3741 14.501C21.2961 14.501 21.2197 14.5181 21.15 14.5498C21.0914 14.5762 21.0376 14.6133 20.9912 14.6597C20.9435 14.7075 20.9055 14.7632 20.8788 14.8237C20.8485 14.8921 20.8325 14.9668 20.8325 15.043C20.8325 15.1865 20.8896 15.3242 20.9912 15.4258C21.0415 15.4761 21.1007 15.5156 21.1652 15.5425C21.1995 15.5566 21.2352 15.5679 21.272 15.5747C21.3054 15.5811 21.3396 15.5845 21.3741 15.5845H21.3926C22.3806 15.6548 23.1 15.9844 23.6038 16.5249C24.1205 17.0815 24.3881 17.7739 24.3674 18.6299C24.3641 18.7734 24.4181 18.9126 24.5173 19.0161C24.6166 19.1201 24.7531 19.1807 24.8966 19.1836C25.0403 19.187 25.1794 19.1333 25.2833 19.0342C25.3187 19 25.349 18.9619 25.3738 18.9204L25.3959 18.8799C25.4299 18.8105 25.449 18.7339 25.4508 18.6548C25.4768 17.5312 25.115 16.5615 24.3978 15.7861C23.6643 14.9995 22.658 14.5835 21.4468 14.502L21.4283 14.5L21.3741 14.501ZM21.6301 16.1538C21.6555 16.1523 21.681 16.1528 21.7065 16.1553C22.3544 16.1899 22.9253 16.3955 23.3446 16.8184C23.7617 17.2407 23.9653 17.8149 24 18.4648C24.0021 18.4883 24.0026 18.5122 24.0015 18.5356C24.0002 18.5649 23.9966 18.5942 23.9906 18.623C23.9866 18.6421 23.9816 18.6606 23.9756 18.6792C23.9531 18.7485 23.917 18.8125 23.8694 18.8672C23.8217 18.9224 23.7634 18.9668 23.6981 18.999C23.6328 19.0308 23.5618 19.0493 23.4891 19.0532C23.4446 19.0557 23.4 19.0527 23.3564 19.0439C23.329 19.0386 23.3019 19.0312 23.2755 19.0215C23.2306 19.0049 23.1881 18.9829 23.1492 18.9556C23.1289 18.9414 23.1095 18.9258 23.0913 18.9087C23.0381 18.8594 22.9955 18.7993 22.9658 18.7329C22.9362 18.6665 22.9202 18.5952 22.9188 18.5225C22.8939 18.0596 22.7574 17.7642 22.5743 17.5796C22.3923 17.397 22.103 17.2603 21.6503 17.2363C21.5775 17.2354 21.5057 17.2192 21.4392 17.1899C21.4025 17.1733 21.3677 17.1533 21.3356 17.1294C21.3096 17.1099 21.2854 17.0884 21.2632 17.0645L21.2312 17.0264C21.2166 17.0078 21.2031 16.9883 21.1912 16.9678C21.1749 16.9399 21.1611 16.9106 21.15 16.8804C21.1251 16.812 21.1143 16.7393 21.118 16.6665C21.1218 16.5938 21.1403 16.5229 21.1721 16.4575C21.204 16.3921 21.2488 16.3335 21.3037 16.2861C21.3586 16.2383 21.4226 16.2021 21.4918 16.1797C21.5367 16.165 21.5833 16.1562 21.6301 16.1538ZM16.1285 14.3022C15.9272 14.2729 15.7219 14.3135 15.5469 14.417H15.5316C15.1254 14.6553 14.7593 14.9556 14.4473 15.3086C14.1873 15.6089 14.0464 15.9121 14.0096 16.2046C13.9879 16.3779 14.0031 16.5532 14.054 16.7192L14.0735 16.73C14.366 17.5889 14.7473 18.4155 15.2131 19.1934C15.8138 20.2861 16.553 21.2964 17.4124 22.1997L17.4384 22.2363L17.4795 22.2666L17.5044 22.2959L17.5348 22.3223C18.4412 23.1841 19.454 23.9268 20.5486 24.5322C21.7998 25.2134 22.5592 25.5352 23.0154 25.6694V25.6763C23.1486 25.7173 23.2699 25.7358 23.3923 25.7358C23.7808 25.707 24.1484 25.5493 24.4366 25.2871C24.7887 24.9751 25.0867 24.6079 25.3185 24.1997V24.1919C25.5363 23.7803 25.4626 23.3926 25.1484 23.1294C24.7938 22.8193 24.423 22.5288 24.0377 22.2593C23.7373 22.0488 23.428 21.8511 23.1107 21.6665C22.6254 21.4033 22.1324 21.5625 21.9331 21.8291L21.5073 22.3667C21.2885 22.6328 20.892 22.5962 20.892 22.5962L20.8812 22.6025C17.9226 21.8477 17.1328 18.8521 17.1328 18.8521C17.1328 18.8521 17.0959 18.4448 17.3701 18.2368L17.9031 17.8076C18.1588 17.5996 18.3364 17.1079 18.0624 16.6226C17.6438 15.8975 17.155 15.2153 16.603 14.5859C16.4827 14.438 16.314 14.3369 16.1285 14.3022ZM21.1282 13C20.9845 13 20.8467 13.0571 20.7451 13.1587C20.6436 13.2603 20.5865 13.3979 20.5865 13.5415C20.5865 13.6855 20.6436 13.8232 20.7451 13.9248C20.8467 14.0264 20.9845 14.0835 21.1282 14.0835C22.4976 14.0835 23.635 14.5308 24.5353 15.3887C24.9978 15.8579 25.3586 16.4136 25.5947 17.0225C25.832 17.6323 25.9403 18.2832 25.9121 18.9355C25.9061 19.0791 25.9574 19.2192 26.0547 19.3252C26.1521 19.4312 26.2875 19.4941 26.431 19.5C26.5747 19.5059 26.715 19.4546 26.8208 19.3574C26.9266 19.2603 26.9895 19.1245 26.9955 18.981C27.0291 18.1787 26.896 17.3784 26.6044 16.6304C26.3116 15.8784 25.8677 15.1948 25.3 14.6216L25.2893 14.6108C24.1724 13.5439 22.7596 13 21.1282 13ZM25.6875 9.57812C22.2404 8.80713 18.6654 8.80713 15.2183 9.57812L14.851 9.65918C13.8433 9.88428 12.9177 10.3848 12.1772 11.1045C11.4368 11.8242 10.9103 12.7349 10.6562 13.7358C9.78125 17.1841 9.78125 20.7959 10.6562 24.2441C10.8912 25.1699 11.3597 26.02 12.017 26.7129C12.6741 27.4058 13.498 27.9189 14.41 28.2026L14.8856 31.043C14.8934 31.0894 14.9052 31.1348 14.9207 31.1787C14.953 31.271 15.002 31.3569 15.0653 31.4321C15.1589 31.5435 15.2808 31.6274 15.418 31.6758C15.4985 31.7041 15.5828 31.7192 15.6674 31.7212C15.7269 31.7227 15.7866 31.7178 15.8456 31.7061C15.9882 31.6777 16.1206 31.6113 16.229 31.5142L19.103 28.9424C21.3119 29.0669 23.5273 28.8848 25.6864 28.4019L26.0548 28.3208C27.0625 28.0952 27.988 27.5952 28.7285 26.8755C29.469 26.1558 29.9955 25.2451 30.2495 24.2441C31.1245 20.7959 31.1245 17.1841 30.2495 13.7358C29.9955 12.7349 29.469 11.8242 28.7285 11.1045C27.988 10.3848 27.0625 9.88428 26.0548 9.65918L25.6875 9.57812ZM15.5725 11.1631C18.7864 10.4443 22.1194 10.4443 25.3333 11.1631L25.7006 11.2451C26.4149 11.4048 27.071 11.7598 27.5961 12.27C28.121 12.7803 28.4943 13.4258 28.6743 14.1357C29.4824 17.3218 29.4824 20.6592 28.6743 23.8442C28.4943 24.5537 28.121 25.1997 27.5961 25.71C27.071 26.2202 26.4149 26.5747 25.7006 26.7349L25.3333 26.8169C23.2145 27.2905 21.038 27.4526 18.8723 27.2993C18.7638 27.2915 18.6548 27.3057 18.5519 27.3413C18.449 27.3765 18.3542 27.4321 18.2732 27.5049L16.2452 29.3193L15.9268 27.415C15.9 27.2554 15.8264 27.1079 15.7152 26.9902C15.604 26.873 15.4604 26.7915 15.3027 26.7563L15.2052 26.7349C14.4908 26.5747 13.8346 26.2202 13.3097 25.71C12.7848 25.1997 12.4115 24.5537 12.2314 23.8442C11.423 20.6587 11.423 17.3213 12.2314 14.1357C12.4114 13.4263 12.7844 12.7803 13.3092 12.27C13.834 11.7598 14.4899 11.4053 15.2041 11.2451L15.5725 11.1631Z" fill="currentcolor"/>
</svg>