<svg width="280" height="137" viewBox="0 0 280 137" fill="none" xmlns="http://www.w3.org/2000/svg">
<g clip-path="url(#clip0_296_141)">
<path d="M6.5318 98.6092C-0.530667 117.546 23.1723 148.846 44.4114 116.931C47.893 111.698 55.2144 103.756 65.1258 94.8973C74.2052 86.782 94.8544 94.9986 110.473 87.6501C134.968 76.1257 117.591 40.2859 131.005 34.6623C148.575 27.2968 172.104 36.9393 188.656 38.5106C204.238 39.9897 219.903 34.827 232.049 26.3233C253.357 11.4048 263.835 -13.7963 244.032 -31.455C234.119 -40.2948 216.618 -47.2444 189.088 -50.0678C176.779 -51.3301 166.193 -52.7278 157.091 -54.2953C133.664 -58.3305 156.632 -74.9758 138.918 -90.5627C128.825 -99.4438 101.637 -91.0158 102.006 -106.918C102.269 -118.226 102.977 -131.634 100.997 -147.603C97.5214 -175.645 78.295 -194.88 56.041 -176.824C45.5359 -168.3 34.3561 -151.465 23.84 -123.325C17.109 -105.317 3.12515 -117.431 -14.5921 -101.696C-32.3118 -85.9598 -26.1239 -67.1126 -42.6092 -67.9861L-42.9384 -68.0037C-55.5022 -68.6703 -68.9031 -69.3811 -83.6463 -61.8719C-96.3465 -55.4034 -104.838 -45.6986 -108.236 -35.7176C-111.873 -25.0353 -109.674 -14.0368 -100.557 -6.34998C-91.4094 1.36273 -75.2931 5.74123 -51.1129 3.12001C-35.1706 1.39191 -47.8121 25.1509 -31.3737 34.9481C-14.933 44.7455 4.60864 27.7503 8.26682 40.2058C14.6169 61.8419 14.805 76.4311 6.5318 98.6092Z" stroke="currentColor" stroke-width="3"/>
<path d="M48.9159 -1.5785C47.8233 1.32199 52.6845 4.25298 55.095 2.09923C57.8394 -0.352953 59.5693 -5.03862 62.2459 -7.5568C67.4139 -12.4185 70.8462 -12.2196 77.488 -11.6194C79.8673 -11.4027 82.2639 -12.2019 84.1255 -13.5098C87.391 -15.8045 89.0095 -19.6652 85.9971 -22.354C84.4889 -23.6998 81.8205 -24.7519 77.6171 -25.1671C75.7377 -25.3525 74.1216 -25.5599 72.7322 -25.794C66.5189 -26.6379 64.5584 -31.4887 64.355 -33.8087C64.4032 -35.5383 64.5208 -37.5894 64.2297 -40.0305C63.7186 -44.3173 59.5373 -47.1847 57.3831 -44.4722C54.3397 -40.6398 48.7148 -21.7057 39.2861 -25.2231C34.9061 -26.8571 32.715 -24.3193 32.1883 -22.7905C31.6241 -21.1546 31.9532 -19.4737 33.3403 -18.3037C34.7321 -17.1298 39.011 -17.2834 40.8871 -16.8856C47.8092 -15.4174 53.1599 -13.2282 48.9159 -1.5785Z" stroke="currentColor" stroke-width="3"/>
<path d="M45.0969 106.751C25.6479 135.713 3.99501 107.102 10.4697 89.7422C18.3786 68.5103 17.7179 55.0365 11.3114 35.2156C7.90005 23.8648 -10.0218 39.3211 -25.113 30.3918C-40.2042 21.4627 -28.8323 -0.177597 -43.3992 1.34094C-65.527 3.61864 -80.2186 -0.517631 -88.4942 -7.68314C-96.765 -14.7463 -98.7046 -24.8452 -95.291 -34.6201C-92.0936 -43.757 -84.22 -52.6066 -72.4649 -58.417C-58.079 -64.9869 -45.2871 -65.9805 -33.4944 -65.7158C-18.3985 -65.0429 -23.8858 -82.1869 -7.64021 -96.4203C8.60534 -110.654 21.4372 -99.47 27.5828 -115.66C37.1796 -141.042 47.3403 -156.173 56.8944 -163.771C77.1515 -180.093 94.6948 -162.431 97.9759 -136.77C99.895 -122.094 99.438 -109.765 99.4807 -99.4373C99.2708 -84.9468 124.154 -92.5951 133.508 -84.4981C149.816 -70.2958 129.075 -55.1179 150.516 -51.4018C158.923 -49.931 168.65 -48.6046 179.917 -47.3945C205.239 -44.5805 221.018 -37.9079 229.743 -29.6582C247.677 -13.5323 238.048 9.44402 218.559 23.047C207.406 30.8138 193.045 35.5234 178.76 34.1669C163.098 32.6804 141.379 23.8874 124.926 31.027C112.6 36.2568 128.313 69.0285 105.927 79.6753C91.6163 86.5228 72.7275 79.2074 64.3431 86.7016C55.2167 94.8587 48.3905 102.066 45.0969 106.751Z" stroke="currentColor" stroke-width="3"/>
<path d="M45.7984 96.1326C28.2128 122.053 8.62876 96.1842 14.4852 80.4491C21.9849 60.2247 20.847 47.8989 14.3793 29.9368C11.2078 19.7159 -5.03539 33.5798 -18.7536 25.5282C-32.4718 17.4767 -22.4165 -1.98149 -35.5752 -0.688412C-55.5964 1.22179 -68.8397 -2.67421 -76.2266 -9.2814C-83.6417 -15.71 -85.3274 -24.8854 -82.1536 -33.7257C-79.1748 -41.993 -71.9431 -49.9584 -61.1684 -55.0861C-47.3044 -60.6221 -35.2601 -63.3837 -24.3631 -63.5152C-10.6896 -63.0321 -15.4786 -78.4342 -0.756503 -91.1159C13.9679 -103.798 25.6266 -93.5601 31.1609 -107.887C39.7892 -130.44 48.8945 -143.821 57.4691 -150.468C75.6679 -164.999 91.5062 -148.936 94.6103 -125.719C96.4791 -112.372 96.2849 -101.154 96.6434 -91.8326C96.6077 -78.7895 119.123 -85.6199 127.725 -78.3159C142.604 -65.5211 124.151 -51.8658 143.561 -48.4601C151.255 -47.0827 160.102 -45.8226 170.304 -44.6584C193.365 -41.8396 207.392 -35.4481 214.917 -27.8023C230.958 -13.2345 222.222 7.45126 204.609 19.6884C194.482 26.6895 181.463 30.9222 168.505 29.6799C153.767 28.2681 133.898 20.3282 118.608 27.2092C107.403 32.0219 121.448 61.6563 101.231 71.3799C88.2684 77.6971 71.176 71.2856 63.5126 78.1326C55.1997 85.5597 48.8914 92.0083 45.7984 96.1326Z" stroke="currentColor" stroke-width="3"/>
<path d="M46.4867 85.9542C30.6907 108.921 13.1591 85.7427 18.4254 71.5842C25.5607 52.3061 23.9503 41.0952 17.4262 24.9485C14.5015 15.8325 -0.119445 28.1575 -12.4882 20.9745C-24.8592 13.7918 -16.0711 -3.54729 -27.8568 -2.46355C-45.8233 -0.896218 -57.6418 -4.54999 -64.1542 -10.6093C-70.7253 -16.4138 -72.15 -24.6892 -69.1995 -32.6217C-66.4229 -40.0447 -59.8072 -47.1546 -49.9799 -51.624C-36.5979 -56.1539 -25.273 -60.7001 -15.2412 -61.2382C-2.95715 -60.9561 -7.04555 -74.6545 6.2048 -85.8334C19.4552 -97.0128 29.9619 -87.7068 34.9131 -100.215C42.6198 -120.008 50.708 -131.684 58.3316 -137.406C74.5332 -150.204 88.6875 -135.714 91.596 -114.88C93.4044 -102.827 93.4601 -92.6865 94.1243 -84.3456C94.2482 -72.7149 114.458 -78.7648 122.32 -72.245C135.792 -60.8365 119.567 -48.6483 136.989 -45.5622C143.988 -44.2818 151.976 -43.0931 161.137 -41.9814C181.989 -39.1724 194.293 -33.0586 200.629 -26.0036C214.799 -12.9696 206.912 5.49052 191.118 16.4122C181.984 22.6763 170.269 26.4562 158.609 25.3371C144.761 24.0097 126.702 16.92 112.53 23.5753C102.415 27.9941 114.793 54.559 96.6857 63.4053C85.0315 69.2218 69.7007 63.7127 62.7323 69.938C55.2045 76.6633 49.3914 82.3773 46.4867 85.9542Z" stroke="currentColor" stroke-width="3"/>
<path d="M46.9489 75.5943C32.9358 95.6015 17.4967 75.146 22.1846 62.571C28.9626 44.2471 26.8961 34.1615 20.3367 19.8481C17.666 11.8465 4.67422 22.6349 -6.32856 16.3364C-17.3313 10.0378 -9.80572 -5.17563 -20.2043 -4.29252C-36.0995 -3.05521 -46.4816 -6.45411 -52.1053 -11.9562C-57.8183 -17.1268 -58.975 -24.4944 -56.2431 -31.5157C-53.6617 -38.0909 -47.6642 -44.3452 -38.7867 -48.1604C-25.9008 -51.6917 -15.2953 -58.031 -6.14047 -58.9838C4.74006 -58.9135 1.37102 -70.8938 13.1449 -80.5727C24.9212 -90.2511 34.2548 -81.8884 38.63 -92.5733C45.4252 -109.597 52.4982 -119.568 59.1683 -124.364C73.3677 -135.433 85.8098 -122.537 88.5003 -104.103C90.2351 -93.3553 90.5314 -84.3042 91.4934 -76.9488C91.7657 -66.7401 109.656 -72.022 116.764 -66.2972C128.805 -56.2946 114.813 -45.5703 130.227 -42.8201C136.523 -41.6436 143.641 -40.5333 151.75 -39.4825C170.37 -36.702 180.932 -30.8801 186.065 -24.4258C198.338 -12.9472 191.29 3.27924 177.322 12.8897C169.184 18.4195 158.782 21.7529 148.432 20.7671C135.489 19.5368 119.265 13.3176 106.219 19.754C97.1984 23.784 107.873 47.2486 91.8844 55.2254C81.5453 60.5462 67.9971 55.9564 61.7246 61.5613C54.983 67.5858 49.6657 72.5656 46.9489 75.5943Z" stroke="currentColor" stroke-width="3"/>
<path d="M47.6837 64.9487C35.4939 81.9571 22.1354 64.2348 26.2238 53.2642C32.621 35.9257 30.0866 26.9768 23.4826 14.5094C21.061 7.62987 9.71969 16.8544 0.0899092 11.4372C-9.54222 6.01985 -3.30261 -7.04052 -12.307 -6.36981C-26.1122 -5.47973 -35.0484 -8.63008 -39.7857 -13.5734C-44.6406 -18.1092 -45.5364 -24.5611 -43.0349 -30.6592C-40.6603 -36.3754 -35.2929 -41.7601 -27.3818 -44.9079C-15.006 -47.4241 -5.14113 -55.5355 3.12506 -56.8924C12.595 -57.0224 9.93362 -67.2731 20.2099 -75.427C30.4862 -83.581 38.6466 -76.1661 42.4271 -85.0078C48.2865 -99.2347 54.3251 -107.478 60.0294 -111.338C72.1999 -120.646 82.9326 -109.349 85.4242 -93.3379C87.0962 -83.9078 87.6428 -75.9545 88.9098 -69.5963C89.3424 -60.8226 104.888 -65.3113 111.242 -60.3817C121.852 -51.7858 110.119 -42.5533 123.513 -40.1272C129.1 -39.0496 135.344 -38.0123 142.394 -37.0154C158.767 -34.2487 167.583 -28.7154 171.516 -22.8652C181.894 -12.9439 175.712 1.02094 163.594 9.29393C156.467 14.0737 147.392 16.9461 138.362 16.0845C126.335 14.94 111.955 9.58299 100.055 15.7789C92.1434 19.4057 101.131 39.7509 87.2871 46.8317C78.2794 51.6393 66.5213 47.9607 60.9578 52.9318C55.0163 58.2404 50.2061 62.4743 47.6837 64.9487Z" stroke="currentColor" stroke-width="3"/>
<path d="M48.3767 54.7749C37.9765 68.8266 26.6752 53.799 30.1758 44.4063C36.2062 28.0117 33.204 20.1792 26.5435 9.52986C24.3665 3.75676 14.6497 11.4414 6.3694 6.89469C-1.91089 2.34801 3.05916 -8.59107 -4.5699 -8.12947C-16.3203 -7.58183 -23.8295 -10.4891 -27.6898 -14.8841C-31.696 -18.795 -32.3308 -24.3456 -30.0526 -29.5354C-27.8803 -34.4064 -23.1288 -38.9352 -16.1651 -41.4242C-4.27131 -42.9334 4.87885 -52.8373 12.2775 -54.6029C20.3556 -54.9357 18.3972 -63.4799 27.1994 -70.1302C36.004 -76.7804 43.0077 -70.2967 46.2067 -77.3171C51.1448 -88.7807 56.1647 -95.318 60.9171 -98.2522C71.0885 -105.824 80.1336 -96.1022 82.4282 -82.4766C84.0389 -74.3417 84.8354 -67.4696 86.4087 -62.093C87.0007 -54.7334 100.239 -58.4427 105.852 -54.2981C115.053 -47.091 105.549 -39.3267 116.954 -37.2215C121.844 -36.2415 127.227 -35.2758 133.235 -34.3321C147.397 -31.5758 154.486 -26.3203 157.226 -21.0613C165.73 -12.6764 160.396 -0.939355 150.099 6.01746C143.967 10.0603 136.197 12.4798 128.466 11.7424C117.328 10.6835 104.762 6.17888 93.9797 12.1509C87.158 15.3846 94.4743 32.656 82.7421 38.8598C75.0443 43.1673 65.0504 40.3935 60.1821 44.7431C55.0261 49.3499 50.7108 52.8486 48.3767 54.7749Z" stroke="currentColor" stroke-width="3"/>
<path d="M48.8474 44.4222C40.2359 55.5118 31.0293 43.2102 33.9469 35.4025C39.6317 19.9611 36.171 13.2588 29.48 4.44946C27.5592 -0.207228 19.4716 5.93945 12.5596 2.27871C5.64764 -1.38203 9.35521 -10.192 3.11561 -9.93101C-6.55884 -9.71339 -12.6292 -12.3658 -15.5985 -16.2032C-18.7465 -19.4799 -19.1133 -24.1222 -17.0515 -28.4002C-15.0766 -32.4235 -10.9435 -36.0964 -4.93429 -37.9319C6.46111 -38.4477 14.9013 -50.1486 21.4254 -52.3311C28.0999 -52.8761 26.8609 -59.7016 34.1843 -64.8499C41.5101 -69.9983 47.3371 -64.462 49.9576 -69.6558C53.9816 -78.3477 57.983 -83.1758 61.7792 -85.1843C69.945 -91.0245 77.2753 -82.897 79.3507 -71.678C80.8867 -64.8495 81.9227 -59.0675 83.7932 -54.6816C84.5338 -48.7464 95.4482 -51.6872 100.307 -48.3395C108.075 -42.5409 100.806 -36.2437 110.2 -34.4755C114.386 -33.5998 118.897 -32.7134 123.852 -31.8307C135.776 -29.1047 141.119 -24.14 142.655 -19.4801C149.26 -12.6513 144.767 -3.14976 136.298 2.4946C131.163 5.80244 124.708 7.7756 118.288 7.1722C108.058 6.21459 97.3304 2.58326 87.6722 8.33871C81.9463 11.1836 87.5565 25.3526 77.9448 30.6859C71.5625 34.4976 63.3518 32.6442 59.1797 36.3734C54.8105 40.2787 50.9923 43.0433 48.8474 44.4222Z" stroke="currentColor" stroke-width="3"/>
<path d="M49.4653 34.1893C42.6504 42.3172 35.4728 32.6906 37.7956 26.4579C43.1065 11.9424 39.1568 6.34595 32.3812 -0.659661C30.6978 -4.21497 24.2325 0.385734 18.6583 -2.41477C13.084 -5.21505 15.5102 -11.9046 10.6389 -11.8608C3.01222 -11.998 -1.6428 -14.4182 -3.74226 -17.7156C-6.04861 -20.3734 -6.1591 -24.1193 -4.32296 -27.4899C-2.55264 -30.6688 0.964472 -33.4834 6.03327 -34.6534C16.9702 -34.1452 24.6933 -47.6615 30.3569 -50.2518C35.6467 -50.9938 35.1036 -56.1186 40.9577 -59.7562C46.8096 -63.3939 51.4954 -58.7766 53.5286 -62.1466C56.6242 -68.0726 59.6036 -71.1892 62.4484 -72.2653C68.6146 -76.3623 74.2756 -69.7952 76.1729 -60.9504C77.6599 -55.4095 78.9572 -50.7017 81.1458 -47.2925C82.0561 -42.767 90.671 -44.9172 94.8001 -42.3466C101.176 -37.9243 96.1427 -33.0998 103.559 -31.6399L103.759 -31.595C107.195 -30.8245 110.788 -30.0188 114.632 -29.1982C124.363 -26.4635 127.989 -21.7623 128.335 -17.6858C133.081 -12.3808 129.443 -5.10614 122.793 -0.784055C118.65 1.78314 113.496 3.29755 108.367 2.81003C99.0077 1.92518 90.0731 -0.868137 81.5243 4.66229C76.885 7.11099 80.847 18.223 73.3437 22.6739C68.269 25.9826 61.8108 25.0261 58.3331 28.1326C54.749 31.3348 51.4237 33.3611 49.4653 34.1893Z" stroke="currentColor" stroke-width="3"/>
<path d="M50.2265 23.5513C45.2343 28.6803 40.1488 21.7962 41.8745 17.1715C46.8022 3.65872 42.3964 -0.794278 35.5902 -5.94611C34.1608 -8.37672 29.3506 -5.339 25.154 -7.25421C20.9575 -9.16943 22.1 -13.7035 18.6299 -13.8692C13.098 -14.3494 9.89119 -16.516 8.68276 -19.25C7.23453 -21.27 7.38737 -24.0971 8.99311 -26.543C10.5565 -28.8616 13.4389 -30.8065 17.5391 -31.3112C27.947 -29.7964 34.9249 -45.0612 39.6974 -48.0523C43.5696 -48.9953 43.7365 -52.3877 48.0875 -54.5023C52.4381 -56.6166 55.9446 -52.9526 57.3846 -54.4818C59.5436 -57.6114 61.4888 -59.0034 63.3663 -59.1452C67.5018 -61.485 71.4463 -56.5242 73.1374 -50.1089C74.5565 -45.8901 76.099 -42.2853 78.5861 -39.8754C79.6523 -36.7876 85.9171 -38.1478 89.2863 -36.3757C94.223 -33.3652 91.4469 -30.0331 96.8366 -28.9017C99.6202 -28.219 102.399 -27.4733 105.256 -26.6935C112.73 -23.981 114.606 -19.5766 113.754 -16.1088C116.599 -12.3666 113.827 -7.35594 109.03 -4.37137C105.901 -2.55374 102.078 -1.4992 98.2731 -1.85972C89.8435 -2.65373 82.7639 -4.57962 75.3697 0.705958C71.842 2.751 74.1105 10.7345 68.7551 14.2883C65.0146 17.0825 60.3523 17.0384 57.5856 19.5098C54.8034 21.9951 51.9883 23.2762 50.2265 23.5513Z" stroke="currentColor" stroke-width="3"/>
<path d="M50.6396 13.1383C47.4566 15.2888 44.4489 11.1255 45.5809 8.09451C50.1384 -4.44327 45.2727 -7.76286 38.4279 -11.0744C37.2477 -12.3884 34.0786 -10.9023 31.2456 -11.9384C28.415 -12.9746 28.2809 -15.3686 26.2026 -15.7433C22.7466 -16.5654 20.981 -18.483 20.6542 -20.6609C20.0618 -22.0492 20.4756 -23.9657 21.8556 -25.4952C23.2121 -26.961 25.4715 -28.0432 28.6101 -27.887C38.5055 -25.3701 44.7639 -42.4045 48.6565 -45.8012C51.1244 -46.9464 51.9973 -48.6191 54.8583 -49.2202C57.7195 -49.8212 60.0564 -47.1008 60.9068 -46.7987C62.1352 -47.1481 63.0521 -46.824 63.9687 -46.0354C66.0872 -46.6281 68.3278 -43.2593 69.8162 -39.2537C71.1692 -36.3454 72.9578 -33.8344 75.7462 -32.4169C76.9696 -30.7564 80.9034 -31.3321 83.521 -30.3529C87.0318 -28.7444 86.5002 -26.8943 89.8796 -26.0886C91.9576 -25.5061 93.866 -24.8347 95.6687 -24.1104C100.904 -21.4162 101.041 -17.2993 98.9926 -14.4306C99.9499 -12.2385 98.0345 -9.47463 95.077 -7.81689C92.9521 -6.74252 90.4485 -6.14413 87.9562 -6.37874C80.4397 -7.08104 75.1963 -8.14495 68.9378 -3.09268C66.5116 -1.44605 67.0963 3.43479 63.8714 6.10132C61.4529 8.38795 58.571 9.25319 56.5075 11.0961C54.5193 12.8721 52.2077 13.4134 50.6396 13.1383Z" stroke="currentColor" stroke-width="3"/>
</g>
<defs>
<clipPath id="clip0_296_141">
<rect width="288" height="149" fill="white" transform="matrix(-1 0 0 -1 280 137)"/>
</clipPath>
</defs>
</svg>
