<svg width="600" height="398" viewBox="0 0 600 398" fill="none" xmlns="http://www.w3.org/2000/svg">
<g clip-path="url(#clip0_296_102)" filter="url(#filter0_ddddf_296_102)">
<path d="M3.3523 224.882C-12.857 268.347 41.5445 340.189 90.2913 266.935C98.2821 254.923 115.086 236.696 137.834 216.362C158.672 197.735 206.065 216.594 241.912 199.727C298.131 173.275 258.248 91.012 289.036 78.104C329.362 61.198 383.365 83.3305 421.353 86.937C457.116 90.332 493.068 78.482 520.945 58.9635C569.851 24.721 593.899 -33.123 548.448 -73.655C525.696 -93.945 485.528 -109.897 422.344 -116.377C394.094 -119.275 369.798 -122.483 348.907 -126.081C295.138 -135.343 347.853 -173.549 307.197 -209.325C284.032 -229.71 221.631 -210.365 222.48 -246.865C223.083 -272.82 224.706 -303.595 220.163 -340.25C212.186 -404.615 168.059 -448.765 116.983 -407.32C92.8721 -387.755 67.213 -349.115 43.077 -284.525C27.6285 -243.19 -4.46643 -270.995 -45.1301 -234.88C-85.7991 -198.76 -71.597 -155.5 -109.433 -157.505L-110.189 -157.546C-139.024 -159.076 -169.781 -160.707 -203.619 -143.471C-232.768 -128.624 -252.258 -106.348 -260.055 -83.439C-268.402 -58.92 -263.357 -33.675 -242.432 -16.0315C-221.436 1.6715 -184.447 11.7215 -128.95 5.70499C-92.3605 1.73849 -121.374 56.2725 -83.6461 78.76C-45.9125 101.248 -1.06162 62.239 7.33443 90.828C21.9088 140.49 22.3405 173.976 3.3523 224.882Z" stroke="#EFBB00" stroke-width="3"/>
<path d="M100.63 -5.07951C98.1224 1.57799 109.279 8.30549 114.812 3.36199C121.111 -2.26651 125.081 -13.0215 131.224 -18.8015C143.085 -29.9605 150.963 -29.504 166.207 -28.1265C171.668 -27.629 177.168 -29.4635 181.441 -32.4655C188.936 -37.7325 192.65 -46.594 185.736 -52.7655C182.275 -55.8545 176.151 -58.2695 166.503 -59.2225C162.19 -59.648 158.481 -60.124 155.292 -60.6615C141.031 -62.5985 136.532 -73.7325 136.065 -79.0575C136.175 -83.0275 136.445 -87.7355 135.777 -93.3385C134.604 -103.178 125.008 -109.76 120.063 -103.534C113.078 -94.737 100.168 -51.2775 78.5282 -59.351C68.4756 -63.1015 63.4465 -57.2765 62.2379 -53.7675C60.9428 -50.0125 61.6983 -46.1545 64.8819 -43.469C68.0762 -40.7745 77.8968 -41.127 82.2028 -40.214C98.09 -36.844 110.371 -31.819 100.63 -5.07951Z" stroke="#EFBB00" stroke-width="3"/>
<path d="M91.8647 243.571C47.2264 310.047 -2.46998 244.376 12.3904 204.529C30.5422 155.795 29.026 124.869 14.3221 79.374C6.49262 53.3205 -34.6405 88.7975 -69.2769 68.302C-103.913 47.807 -77.8132 -1.864 -111.246 1.6215C-162.033 6.8495 -195.752 -2.64448 -214.745 -19.0915C-233.728 -35.3035 -238.18 -58.4835 -230.345 -80.92C-223.007 -101.892 -204.936 -122.204 -177.956 -135.541C-144.938 -150.621 -115.579 -152.901 -88.5133 -152.294C-53.8661 -150.749 -66.4602 -190.1 -29.1744 -222.77C8.11137 -255.44 37.5623 -229.77 51.6672 -266.93C73.6934 -325.19 97.0135 -359.92 118.941 -377.36C165.434 -414.825 205.699 -374.285 213.229 -315.385C217.634 -281.7 216.585 -253.4 216.683 -229.695C216.201 -196.435 273.312 -213.99 294.781 -195.405C332.21 -162.806 284.606 -127.968 333.816 -119.439C353.111 -116.063 375.436 -113.018 401.296 -110.241C459.414 -103.782 495.628 -88.4665 515.652 -69.531C556.813 -32.517 534.714 20.2205 489.984 51.4435C464.386 69.2705 431.426 80.0805 398.64 76.967C362.694 73.555 312.845 53.3725 275.084 69.76C246.794 81.764 282.857 156.985 231.478 181.423C198.633 197.14 155.281 180.349 136.037 197.55C115.091 216.273 99.4238 232.815 91.8647 243.571Z" stroke="#EFBB00" stroke-width="3"/>
<path d="M93.4748 219.197C53.1134 278.692 8.16535 219.316 21.6066 183.199C38.8196 136.778 36.2079 108.486 21.3637 67.2575C14.0846 43.7975 -23.1958 75.6195 -54.6809 57.1385C-86.1661 38.658 -63.0878 -6.00449 -93.2888 -3.03649C-139.24 1.34801 -169.636 -7.5945 -186.59 -22.76C-203.608 -37.5155 -207.477 -58.576 -200.193 -78.867C-193.356 -97.843 -176.758 -116.126 -152.029 -127.896C-120.209 -140.602 -92.5657 -146.941 -67.5556 -147.243C-36.1729 -146.134 -47.1644 -181.486 -13.3751 -210.595C20.4195 -239.705 47.1778 -216.205 59.8798 -249.09C79.6828 -300.855 100.581 -331.57 120.261 -346.825C162.029 -380.18 198.381 -343.31 205.505 -290.02C209.794 -259.385 209.348 -233.635 210.171 -212.24C210.089 -182.302 261.765 -197.98 281.507 -181.215C315.657 -151.847 273.305 -120.504 317.853 -112.687C335.513 -109.526 355.817 -106.633 379.233 -103.961C432.16 -97.491 464.355 -82.8205 481.626 -65.271C518.442 -31.8335 498.393 15.6465 457.968 43.7345C434.725 59.804 404.843 69.5195 375.104 66.668C341.278 63.4275 295.676 45.203 260.583 60.997C234.867 72.0435 267.102 140.064 220.701 162.382C190.949 176.882 151.72 162.166 134.131 177.882C115.052 194.929 100.574 209.731 93.4748 219.197Z" stroke="#EFBB00" stroke-width="3"/>
<path d="M95.0547 195.835C58.8006 248.55 18.5632 195.349 30.6501 162.851C47.0267 118.602 43.3305 92.8695 28.3568 55.808C21.6443 34.884 -11.9129 63.1735 -40.3009 46.6865C-68.6942 30.2 -48.5242 -9.5985 -75.574 -7.111C-116.81 -3.5135 -143.935 -11.9 -158.882 -25.808C-173.963 -39.131 -177.233 -58.1255 -170.461 -76.333C-164.089 -93.371 -148.905 -109.691 -126.35 -119.949C-95.636 -130.347 -69.6439 -140.782 -46.6195 -142.017C-18.4258 -141.369 -27.8093 -172.811 2.6021 -198.47C33.0135 -224.13 57.1278 -202.77 68.4917 -231.48C86.1795 -276.91 104.743 -303.71 122.24 -316.845C159.425 -346.22 191.911 -312.96 198.587 -265.14C202.737 -237.475 202.865 -214.2 204.389 -195.055C204.674 -168.359 251.059 -182.245 269.103 -167.28C300.023 -141.094 262.784 -113.119 302.771 -106.035C318.835 -103.096 337.166 -100.368 358.193 -97.8165C406.051 -91.369 434.291 -77.336 448.832 -61.1425C481.355 -31.2255 463.253 11.146 427.005 36.2145C406.04 50.5925 379.152 59.2685 352.391 56.7C320.607 53.653 279.16 37.38 246.634 52.656C223.417 62.7985 251.827 123.773 210.268 144.078C183.52 157.429 148.334 144.783 132.34 159.072C115.063 174.509 101.721 187.625 95.0547 195.835Z" stroke="#EFBB00" stroke-width="3"/>
<path d="M96.1155 172.055C63.9537 217.978 28.5187 171.026 39.2782 142.163C54.8346 100.104 50.0916 76.9545 35.037 44.101C28.9072 25.735 -0.910645 50.4975 -26.1635 36.0405C-51.4164 21.5835 -34.1441 -13.336 -58.0103 -11.309C-94.4921 -8.46899 -118.32 -16.2705 -131.227 -28.8995C-144.34 -40.7675 -146.994 -57.6785 -140.724 -73.7945C-134.8 -88.8865 -121.035 -103.242 -100.66 -111.999C-71.0845 -120.105 -46.7435 -134.655 -25.7318 -136.842C-0.759533 -136.681 -8.49193 -164.179 18.5308 -186.395C45.559 -208.61 66.9808 -189.415 77.0226 -213.94C92.6184 -253.015 108.852 -275.9 124.161 -286.91C156.751 -312.315 185.307 -282.715 191.482 -240.405C195.464 -215.735 196.143 -194.96 198.351 -178.077C198.976 -154.645 240.037 -166.769 256.351 -153.629C283.987 -130.67 251.872 -106.054 287.251 -99.7415C301.699 -97.041 318.037 -94.4925 336.649 -92.0805C379.385 -85.6985 403.625 -72.3355 415.406 -57.521C443.575 -31.174 427.399 6.07049 395.34 28.1295C376.663 40.822 352.789 48.473 329.034 46.2105C299.326 43.3865 262.091 29.1115 232.148 43.885C211.445 53.135 235.944 106.994 199.249 125.303C175.519 137.516 144.424 126.981 130.028 139.846C114.555 153.674 102.351 165.103 96.1155 172.055Z" stroke="#EFBB00" stroke-width="3"/>
<path d="M97.8019 147.62C69.8246 186.66 39.1649 145.982 48.5484 120.801C63.2307 81.004 57.414 60.4635 42.2568 31.847C36.699 16.0565 10.6691 37.2295 -11.4325 24.7955C-33.5396 12.361 -19.2188 -17.6165 -39.8852 -16.077C-71.57 -14.034 -92.0799 -21.265 -102.953 -32.6115C-114.095 -43.0225 -116.151 -57.8315 -110.41 -71.8285C-104.96 -84.949 -92.6411 -97.3085 -74.4838 -104.534C-46.0797 -110.309 -23.4385 -128.927 -4.46646 -132.042C17.2683 -132.34 11.1601 -155.869 34.7457 -174.584C58.3313 -193.3 77.0605 -176.281 85.7371 -196.575C99.1854 -229.23 113.045 -248.15 126.137 -257.01C154.07 -278.375 178.703 -252.445 184.421 -215.695C188.259 -194.05 189.514 -175.795 192.421 -161.201C193.414 -141.062 229.094 -151.366 243.678 -140.051C268.029 -120.321 241.099 -99.129 271.841 -93.5605C284.664 -91.087 298.994 -88.706 315.176 -86.418C352.753 -80.0675 372.988 -67.367 382.014 -53.939C405.833 -31.1665 391.644 0.887007 363.831 19.876C347.475 30.847 326.647 37.44 305.92 35.4625C278.316 32.8355 245.314 20.5395 218.001 34.761C199.843 43.0855 220.471 89.784 188.697 106.036C168.023 117.071 141.037 108.628 128.268 120.038C114.631 132.223 103.591 141.941 97.8019 147.62Z" stroke="#EFBB00" stroke-width="3"/>
<path d="M99.3925 124.268C75.5225 156.521 49.5844 122.028 57.6189 100.469C71.4594 62.839 64.5689 44.861 49.2822 20.4175C44.2856 7.16651 21.9843 24.805 2.97983 14.369C-16.0246 3.93299 -4.61764 -21.1755 -22.1274 -20.116C-49.0962 -18.859 -66.3307 -25.532 -75.1908 -35.62C-84.3855 -44.5965 -85.8424 -57.337 -80.6138 -69.249C-75.6279 -80.4295 -64.7227 -90.8245 -48.74 -96.5375C-21.4421 -100.002 -0.441181 -122.734 16.5398 -126.786C35.0802 -127.55 30.5853 -147.162 50.7877 -162.426C70.9954 -177.69 87.0698 -162.808 94.412 -178.922C105.746 -205.235 117.267 -220.24 128.174 -226.975C151.519 -244.355 172.279 -222.04 177.545 -190.765C181.242 -172.093 183.07 -156.319 186.681 -143.978C188.04 -127.086 218.423 -135.6 231.306 -126.087C252.423 -109.544 230.611 -91.723 256.786 -86.891C268.011 -84.6415 280.365 -82.425 294.154 -80.259C326.657 -73.9325 342.928 -61.8695 349.218 -49.7985C368.735 -30.5525 356.493 -3.6125 332.86 12.3555C318.785 21.635 300.953 27.1885 283.208 25.496C257.646 23.0655 228.805 12.726 204.058 26.4335C188.401 33.856 205.193 73.499 178.266 87.7385C160.598 97.6255 137.661 91.259 126.488 101.242C114.654 111.816 104.75 119.847 99.3925 124.268Z" stroke="#EFBB00" stroke-width="3"/>
<path d="M100.473 100.506C80.7081 125.96 59.5777 97.724 66.274 79.803C79.3214 44.3605 71.3786 28.9765 56.0218 8.75648C51.6133 -1.93202 33.0513 12.1765 17.1873 3.77397C1.32331 -4.62853 9.83272 -24.85 -4.48805 -24.251C-26.6923 -23.7515 -40.6245 -29.8395 -47.4395 -38.6475C-54.6647 -46.1685 -55.5065 -56.824 -50.7743 -66.6435C-46.2417 -75.878 -36.7556 -84.3085 -22.9637 -88.5215C3.19035 -89.7055 22.5617 -116.563 37.5354 -121.572C52.8544 -122.823 50.0107 -138.49 66.819 -150.307C83.6327 -162.124 97.0065 -149.416 103.021 -161.338C112.256 -181.288 121.44 -192.37 130.153 -196.98C148.895 -210.385 165.719 -191.73 170.482 -165.979C174.007 -150.306 176.385 -137.034 180.678 -126.967C182.378 -113.344 207.428 -120.094 218.579 -112.41C236.407 -99.1005 219.726 -84.6465 241.285 -80.588C250.892 -78.578 261.247 -76.5435 272.619 -74.5175C299.987 -68.2605 312.25 -56.865 315.774 -46.169C330.934 -30.495 320.621 -8.68601 301.183 4.26949C289.397 11.862 274.583 16.391 259.849 15.006C236.37 12.808 211.748 4.47299 189.581 17.6835C176.439 24.2135 189.316 56.7355 167.255 68.977C152.607 77.726 133.762 73.472 124.187 82.0315C114.159 90.9955 105.396 97.341 100.473 100.506Z" stroke="#EFBB00" stroke-width="3"/>
<path d="M101.891 77.0185C86.2497 95.6745 69.7759 73.5785 75.1071 59.2725C87.2965 25.955 78.2313 13.1095 62.6803 -2.97049C58.8168 -11.131 43.978 -0.570993 31.1843 -6.99899C18.3906 -13.4265 23.9592 -28.781 12.7789 -28.6805C-4.7255 -28.9955 -15.4094 -34.5505 -20.228 -42.119C-25.5214 -48.2195 -25.775 -56.8175 -21.5608 -64.554C-17.4976 -71.8505 -9.42537 -78.311 2.20823 -80.9965C27.31 -79.83 45.0357 -110.854 58.0344 -116.799C70.1752 -118.502 68.9288 -130.265 82.3646 -138.615C95.7956 -146.964 106.55 -136.367 111.217 -144.102C118.321 -157.704 125.16 -164.857 131.689 -167.327C145.841 -176.731 158.834 -161.657 163.188 -141.356C166.601 -128.638 169.579 -117.832 174.602 -110.007C176.691 -99.6195 196.463 -104.555 205.94 -98.6545C220.575 -88.504 209.022 -77.4305 226.043 -74.0795L226.503 -73.9765C234.389 -72.208 242.635 -70.3585 251.456 -68.475C273.792 -62.198 282.113 -51.4075 282.908 -42.0505C293.799 -29.874 285.45 -13.1765 270.187 -3.25601C260.679 2.63649 248.85 6.1125 237.079 4.9935C215.597 2.9625 195.091 -3.44901 175.471 9.245C164.823 14.8655 173.916 40.371 156.695 50.587C145.048 58.1815 130.225 55.986 122.244 63.1165C114.018 70.4665 106.386 75.1175 101.891 77.0185Z" stroke="#EFBB00" stroke-width="3"/>
<path d="M103.638 52.601C92.1803 64.3735 80.5084 48.5725 84.469 37.9575C95.7789 6.9415 85.6669 -3.27948 70.0457 -15.1045C66.765 -20.6835 55.725 -13.711 46.0932 -18.107C36.4615 -22.503 39.0839 -32.91 31.1196 -33.2905C18.423 -34.3925 11.0629 -39.3655 8.2894 -45.641C4.96552 -50.2775 5.31629 -56.7665 9.0017 -62.3805C12.59 -67.7025 19.2054 -72.1665 28.6159 -73.325C52.5036 -69.848 68.5187 -104.885 79.4724 -111.751C88.3595 -113.915 88.7426 -121.702 98.7288 -126.555C108.714 -131.408 116.762 -122.998 120.067 -126.508C125.022 -133.692 129.487 -136.887 133.796 -137.212C143.287 -142.583 152.34 -131.196 156.222 -116.471C159.479 -106.788 163.019 -98.514 168.727 -92.9825C171.174 -85.895 185.553 -89.017 193.286 -84.9495C204.616 -78.0395 198.245 -70.3915 210.615 -67.7945C217.004 -66.2275 223.382 -64.516 229.938 -62.726C247.091 -56.5 251.398 -46.3905 249.442 -38.431C255.973 -29.8415 249.609 -18.3405 238.601 -11.49C231.419 -7.31798 222.645 -4.89749 213.912 -5.72499C194.565 -7.54749 178.316 -11.968 161.345 0.164017C153.249 4.85802 158.455 23.1825 146.164 31.3395C137.579 37.753 126.878 37.652 120.528 43.3245C114.143 49.029 107.682 51.9695 103.638 52.601Z" stroke="#EFBB00" stroke-width="3"/>
<path d="M104.586 28.7C97.2806 33.636 90.3776 24.08 92.9758 17.123C103.436 -11.655 92.2683 -19.2745 76.5586 -26.8755C73.8499 -29.8915 66.5762 -26.4805 60.0742 -28.8585C53.5775 -31.237 53.2699 -36.732 48.4999 -37.592C40.5679 -39.479 36.5155 -43.8805 35.7655 -48.8795C34.4057 -52.066 35.3554 -56.465 38.5228 -59.9755C41.6363 -63.34 46.8217 -65.824 54.0253 -65.4655C76.7367 -59.6885 91.1007 -98.7875 100.035 -106.584C105.699 -109.213 107.702 -113.052 114.269 -114.432C120.835 -115.811 126.199 -109.567 128.151 -108.874C130.97 -109.676 133.074 -108.932 135.178 -107.122C140.041 -108.482 145.183 -100.75 148.599 -91.5555C151.704 -84.88 155.81 -79.1165 162.209 -75.863C165.017 -72.0515 174.046 -73.373 180.053 -71.1255C188.111 -67.4335 186.891 -63.187 194.647 -61.3375C199.417 -60.0005 203.797 -58.4595 207.934 -56.797C219.95 -50.613 220.264 -41.1635 215.563 -34.579C217.76 -29.5475 213.364 -23.2035 206.576 -19.3985C201.699 -16.9325 195.953 -15.559 190.233 -16.0975C172.982 -17.7095 160.947 -20.1515 146.583 -8.555C141.015 -4.7755 142.356 6.42749 134.955 12.548C129.404 17.7965 122.79 19.7825 118.054 24.0125C113.49 28.089 108.185 29.3315 104.586 28.7Z" stroke="#EFBB00" stroke-width="3"/>
</g>
<defs>
<filter id="filter0_ddddf_296_102" x="-58" y="-35" width="717" height="446" filterUnits="userSpaceOnUse" color-interpolation-filters="sRGB">
<feFlood flood-opacity="0" result="BackgroundImageFix"/>
<feColorMatrix in="SourceAlpha" type="matrix" values="0 0 0 0 0 0 0 0 0 0 0 0 0 0 0 0 0 0 127 0" result="hardAlpha"/>
<feOffset dy="4"/>
<feGaussianBlur stdDeviation="5"/>
<feColorMatrix type="matrix" values="0 0 0 0 0 0 0 0 0 0 0 0 0 0 0 0 0 0 0.1 0"/>
<feBlend mode="normal" in2="BackgroundImageFix" result="effect1_dropShadow_296_102"/>
<feColorMatrix in="SourceAlpha" type="matrix" values="0 0 0 0 0 0 0 0 0 0 0 0 0 0 0 0 0 0 127 0" result="hardAlpha"/>
<feOffset dy="17"/>
<feGaussianBlur stdDeviation="8.5"/>
<feColorMatrix type="matrix" values="0 0 0 0 0 0 0 0 0 0 0 0 0 0 0 0 0 0 0.09 0"/>
<feBlend mode="normal" in2="effect1_dropShadow_296_102" result="effect2_dropShadow_296_102"/>
<feColorMatrix in="SourceAlpha" type="matrix" values="0 0 0 0 0 0 0 0 0 0 0 0 0 0 0 0 0 0 127 0" result="hardAlpha"/>
<feOffset dy="39"/>
<feGaussianBlur stdDeviation="12"/>
<feColorMatrix type="matrix" values="0 0 0 0 0 0 0 0 0 0 0 0 0 0 0 0 0 0 0.05 0"/>
<feBlend mode="normal" in2="effect2_dropShadow_296_102" result="effect3_dropShadow_296_102"/>
<feColorMatrix in="SourceAlpha" type="matrix" values="0 0 0 0 0 0 0 0 0 0 0 0 0 0 0 0 0 0 127 0" result="hardAlpha"/>
<feOffset dy="70"/>
<feGaussianBlur stdDeviation="14"/>
<feColorMatrix type="matrix" values="0 0 0 0 0 0 0 0 0 0 0 0 0 0 0 0 0 0 0.01 0"/>
<feBlend mode="normal" in2="effect3_dropShadow_296_102" result="effect4_dropShadow_296_102"/>
<feBlend mode="normal" in="SourceGraphic" in2="effect4_dropShadow_296_102" result="shape"/>
<feGaussianBlur stdDeviation="1" result="effect5_foregroundBlur_296_102"/>
</filter>
<clipPath id="clip0_296_102">
<rect width="661" height="342" fill="white" transform="matrix(-1 0 0 -1 631 313)"/>
</clipPath>
</defs>
</svg>
